<svg width="3840" height="2160" viewBox="0 0 3840 2160" fill="none" xmlns="http://www.w3.org/2000/svg">
<g clip-path="url(#clip0_3254_22687)">
<mask id="mask0_3254_22687" style="mask-type:luminance" maskUnits="userSpaceOnUse" x="0" y="0" width="3840" height="2160">
<path d="M3840 0H0V2160H3840V0Z" fill="white"/>
</mask>
<g mask="url(#mask0_3254_22687)">
<path d="M3840 0H0V2160H3840V0Z" fill="white"/>
<path d="M3840 0H0V2160H3840V0Z" fill="url(#paint0_linear_3254_22687)"/>
<mask id="mask1_3254_22687" style="mask-type:alpha" maskUnits="userSpaceOnUse" x="-6" y="-12" width="3852" height="2193">
<path fill-rule="evenodd" clip-rule="evenodd" d="M3397.3 1093.94L3561.55 867.537L3559.94 866.36L3395.68 1092.75L3397.3 1093.94Z" fill="#3F3F46"/>
<path fill-rule="evenodd" clip-rule="evenodd" d="M3621.65 1232.18L3561.55 867.537L3559.58 867.863L3619.68 1232.5L3621.65 1232.18Z" fill="#3F3F46"/>
<path fill-rule="evenodd" clip-rule="evenodd" d="M3621.65 1232.18L3846 1340.36V1337.35L3622.51 1230.37L3621.65 1232.18Z" fill="#3F3F46"/>
<path fill-rule="evenodd" clip-rule="evenodd" d="M3621.65 1232.18L3846 1526.68V1523.68L3623.25 1230.96L3621.65 1232.18Z" fill="#3F3F46"/>
<path fill-rule="evenodd" clip-rule="evenodd" d="M3621.65 1232.18L3397.3 1093.94L3396.25 1095.64L3620.6 1233.88L3621.65 1232.18Z" fill="#3F3F46"/>
<path fill-rule="evenodd" clip-rule="evenodd" d="M3200.99 1358.39L3397.3 1093.94L3395.68 1092.74L3199.38 1357.2L3200.99 1358.39Z" fill="#3F3F46"/>
<path fill-rule="evenodd" clip-rule="evenodd" d="M3200.99 1358.39L2992.67 1200.12L2991.46 1201.71L3199.79 1359.99L3200.99 1358.39Z" fill="#3F3F46"/>
<path fill-rule="evenodd" clip-rule="evenodd" d="M3200.99 1358.39L2812.39 1296.29L2812.07 1298.26L3200.68 1360.38L3200.99 1358.39Z" fill="#3F3F46"/>
<path fill-rule="evenodd" clip-rule="evenodd" d="M2654.15 1580.78L2812.39 1296.29L2810.63 1295.31L2652.39 1579.81L2654.15 1580.78Z" fill="#3F3F46"/>
<path fill-rule="evenodd" clip-rule="evenodd" d="M2654.15 1580.78L2592.04 1682.96L2593.76 1684L2655.85 1581.83L2654.15 1580.78Z" fill="#3F3F46"/>
<path fill-rule="evenodd" clip-rule="evenodd" d="M2592.04 1959.44V1682.96H2590.05V1959.44H2592.04Z" fill="#3F3F46"/>
<path fill-rule="evenodd" clip-rule="evenodd" d="M2592.04 1959.44L2479.88 1580.78L2477.95 1581.35L2590.13 1960.01L2592.04 1959.44Z" fill="#3F3F46"/>
<path fill-rule="evenodd" clip-rule="evenodd" d="M2151.36 1558.74L2479.87 1580.78L2480 1578.79L2151.49 1556.75L2151.36 1558.74Z" fill="#3F3F46"/>
<path fill-rule="evenodd" clip-rule="evenodd" d="M2151.36 1558.74L2147.35 1428.52L2145.35 1428.58L2149.35 1558.8L2151.36 1558.74Z" fill="#3F3F46"/>
<path fill-rule="evenodd" clip-rule="evenodd" d="M2151.36 1558.74L2159.37 1763.1L2161.37 1763.02L2153.36 1558.66L2151.36 1558.74Z" fill="#3F3F46"/>
<path fill-rule="evenodd" clip-rule="evenodd" d="M1838.88 1422.51L2159.37 1763.1L2160.83 1761.73L1840.33 1421.13L1838.88 1422.51Z" fill="#3F3F46"/>
<path fill-rule="evenodd" clip-rule="evenodd" d="M1838.88 1422.51L1800.81 1538.71L1802.71 1539.33L1840.77 1423.13L1838.88 1422.51Z" fill="#3F3F46"/>
<path fill-rule="evenodd" clip-rule="evenodd" d="M1576.46 1382.43L1800.81 1538.71L1801.96 1537.07L1577.61 1380.79L1576.46 1382.43Z" fill="#3F3F46"/>
<path fill-rule="evenodd" clip-rule="evenodd" d="M1576.46 1382.43L1456.27 1448.55L1457.24 1450.31L1577.43 1384.19L1576.46 1382.43Z" fill="#3F3F46"/>
<path fill-rule="evenodd" clip-rule="evenodd" d="M1374.15 1490.62L1456.28 1448.55L1455.36 1446.76L1373.24 1488.85L1374.15 1490.62Z" fill="#3F3F46"/>
<path fill-rule="evenodd" clip-rule="evenodd" d="M1374.15 1490.62L1207.89 1574.77L1208.79 1576.56L1375.05 1492.42L1374.15 1490.62Z" fill="#3F3F46"/>
<path fill-rule="evenodd" clip-rule="evenodd" d="M590.93 1562.76L1207.89 1574.77L1207.93 1572.77L590.969 1560.75L590.93 1562.76Z" fill="#3F3F46"/>
<path fill-rule="evenodd" clip-rule="evenodd" d="M590.93 1562.76L949.488 1496.64L949.124 1494.66L590.566 1560.78L590.93 1562.76Z" fill="#3F3F46"/>
<path fill-rule="evenodd" clip-rule="evenodd" d="M1135.78 1306.31L949.488 1496.64L950.92 1498.03L1137.21 1307.7L1135.78 1306.31Z" fill="#3F3F46"/>
<path fill-rule="evenodd" clip-rule="evenodd" d="M1135.78 1306.31L899.411 1077.91L898.02 1079.35L1134.38 1307.74L1135.78 1306.31Z" fill="#3F3F46"/>
<path fill-rule="evenodd" clip-rule="evenodd" d="M701.102 887.571L899.41 1077.91L900.798 1076.46L702.489 886.126L701.102 887.571Z" fill="#3F3F46"/>
<path fill-rule="evenodd" clip-rule="evenodd" d="M701.099 887.572L514.809 1073.89L516.225 1075.32L702.515 888.989L701.099 887.572Z" fill="#3F3F46"/>
<path fill-rule="evenodd" clip-rule="evenodd" d="M701.101 887.572L366.579 494.886L365.055 496.185L699.576 888.872L701.101 887.572Z" fill="#3F3F46"/>
<path fill-rule="evenodd" clip-rule="evenodd" d="M701.101 887.571L1059.66 815.446L1059.27 813.481L700.707 885.607L701.101 887.571Z" fill="#3F3F46"/>
<path fill-rule="evenodd" clip-rule="evenodd" d="M632.996 693.232L1059.66 815.446L1060.21 813.52L633.548 691.306L632.996 693.232Z" fill="#3F3F46"/>
<path fill-rule="evenodd" clip-rule="evenodd" d="M440.695 805.429L1059.66 815.446L1059.69 813.442L440.727 803.425L440.695 805.429Z" fill="#3F3F46"/>
<path fill-rule="evenodd" clip-rule="evenodd" d="M440.698 805.429L278.445 887.572L279.349 889.359L441.603 807.216L440.698 805.429Z" fill="#3F3F46"/>
<path fill-rule="evenodd" clip-rule="evenodd" d="M440.698 805.428L0.011451 755.34L-0.214844 757.332L440.471 807.419L440.698 805.428Z" fill="#3F3F46"/>
<path fill-rule="evenodd" clip-rule="evenodd" d="M70.1177 999.772L278.443 887.571L277.493 885.808L69.168 998.006L70.1177 999.772Z" fill="#3F3F46"/>
<path fill-rule="evenodd" clip-rule="evenodd" d="M70.118 999.772L0.00898899 931.649L-1.38672 933.086L68.7223 1001.21L70.118 999.772Z" fill="#3F3F46"/>
<path fill-rule="evenodd" clip-rule="evenodd" d="M70.1211 999.772L1251.96 2055.61L1253.3 2054.12L71.4558 998.277L70.1211 999.772Z" fill="#3F3F46"/>
<path fill-rule="evenodd" clip-rule="evenodd" d="M632.993 693.232L514.809 1073.89L516.722 1074.49L634.906 693.827L632.993 693.232Z" fill="#3F3F46"/>
<path fill-rule="evenodd" clip-rule="evenodd" d="M632.994 693.232L366.579 494.886L365.383 496.493L631.798 694.839L632.994 693.232Z" fill="#3F3F46"/>
<path fill-rule="evenodd" clip-rule="evenodd" d="M278.445 430.773L366.582 494.886L367.761 493.265L279.623 429.153L278.445 430.773Z" fill="#3F3F46"/>
<path fill-rule="evenodd" clip-rule="evenodd" d="M278.444 430.773L394.625 328.595L393.302 327.09L277.121 429.269L278.444 430.773Z" fill="#3F3F46"/>
<path fill-rule="evenodd" clip-rule="evenodd" d="M6.01772 378.683L394.623 328.595L394.367 326.608L5.76172 376.696L6.01772 378.683Z" fill="#3F3F46"/>
<path fill-rule="evenodd" clip-rule="evenodd" d="M460.727 0.0209961L394.625 328.595L396.588 328.99L462.691 0.416228L460.727 0.0209961Z" fill="#3F3F46"/>
<path fill-rule="evenodd" clip-rule="evenodd" d="M-1.99609 38.0876L394.622 328.595L395.805 326.979L-0.812477 36.4712L-1.99609 38.0876Z" fill="#3F3F46"/>
<path fill-rule="evenodd" clip-rule="evenodd" d="M86.1406 284.518L394.621 328.595L394.904 326.612L86.4238 282.534L86.1406 284.518Z" fill="#3F3F46"/>
<path fill-rule="evenodd" clip-rule="evenodd" d="M460.723 0.0209961L86.1406 284.518L87.3517 286.114L461.935 1.61657L460.723 0.0209961Z" fill="#3F3F46"/>
<path fill-rule="evenodd" clip-rule="evenodd" d="M278.446 430.773L86.1463 284.518L84.9336 286.113L277.233 432.368L278.446 430.773Z" fill="#3F3F46"/>
<path fill-rule="evenodd" clip-rule="evenodd" d="M0.00985708 292.532L86.1441 284.518L85.9582 282.523L-0.175781 290.537L0.00985708 292.532Z" fill="#3F3F46"/>
<path fill-rule="evenodd" clip-rule="evenodd" d="M-1.99609 248.455L86.1412 284.518L86.8995 282.664L-1.23762 246.601L-1.99609 248.455Z" fill="#3F3F46"/>
<path fill-rule="evenodd" clip-rule="evenodd" d="M701.102 887.572L949.488 1496.64L951.343 1495.88L702.956 886.815L701.102 887.572Z" fill="#3F3F46"/>
<path fill-rule="evenodd" clip-rule="evenodd" d="M1456.27 1448.55L1800.81 1538.71L1801.32 1536.77L1456.79 1446.61L1456.27 1448.55Z" fill="#3F3F46"/>
<path fill-rule="evenodd" clip-rule="evenodd" d="M1374.15 1490.62L1800.81 1538.71L1801.04 1536.71L1374.37 1488.63L1374.15 1490.62Z" fill="#3F3F46"/>
<path fill-rule="evenodd" clip-rule="evenodd" d="M1207.89 1574.77L1800.81 1538.71L1800.69 1536.7L1207.77 1572.78L1207.89 1574.77Z" fill="#3F3F46"/>
<path fill-rule="evenodd" clip-rule="evenodd" d="M1644.57 1995.5L2159.38 1763.1L2158.54 1761.27L1643.75 1993.68L1644.57 1995.5Z" fill="#3F3F46"/>
<path fill-rule="evenodd" clip-rule="evenodd" d="M1644.57 1995.5L1828.85 2163.8H1831.86L1645.92 1994.03L1644.57 1995.5Z" fill="#3F3F46"/>
<path fill-rule="evenodd" clip-rule="evenodd" d="M1644.57 1995.5L1251.96 2055.61L1252.26 2057.6L1644.87 1997.49L1644.57 1995.5Z" fill="#3F3F46"/>
<path fill-rule="evenodd" clip-rule="evenodd" d="M1227.92 2165.8L1251.96 2055.61L1250 2055.19L1225.97 2165.37L1227.92 2165.8Z" fill="#3F3F46"/>
<path fill-rule="evenodd" clip-rule="evenodd" d="M1564.44 2093.68L1251.96 2055.61L1251.72 2057.6L1564.2 2095.67L1564.44 2093.68Z" fill="#3F3F46"/>
<path fill-rule="evenodd" clip-rule="evenodd" d="M1416.21 2165.8L1251.96 2055.61L1250.84 2057.28L1415.1 2167.47L1416.21 2165.8Z" fill="#3F3F46"/>
<path fill-rule="evenodd" clip-rule="evenodd" d="M1564.44 2093.68L1684.64 2165.8L1685.66 2164.09L1565.47 2091.96L1564.44 2093.68Z" fill="#3F3F46"/>
<path fill-rule="evenodd" clip-rule="evenodd" d="M1564.44 2093.68L1592.49 2165.8L1594.35 2165.08L1566.31 2092.96L1564.44 2093.68Z" fill="#3F3F46"/>
<path fill-rule="evenodd" clip-rule="evenodd" d="M1564.44 2093.68L1466.3 2165.8L1467.48 2167.42L1565.64 2095.29L1564.44 2093.68Z" fill="#3F3F46"/>
<path fill-rule="evenodd" clip-rule="evenodd" d="M1564.44 2093.68L1368.14 1951.43L1366.97 1953.05L1563.27 2095.3L1564.44 2093.68Z" fill="#3F3F46"/>
<path fill-rule="evenodd" clip-rule="evenodd" d="M1282 1887.32L1368.14 1951.43L1369.33 1949.82L1283.2 1885.71L1282 1887.32Z" fill="#3F3F46"/>
<path fill-rule="evenodd" clip-rule="evenodd" d="M1282 1887.32L1017.59 1686.97L1016.38 1688.57L1280.8 1888.91L1282 1887.32Z" fill="#3F3F46"/>
<path fill-rule="evenodd" clip-rule="evenodd" d="M1135.77 1306.31L1017.59 1686.97L1019.5 1687.56L1137.69 1306.9L1135.77 1306.31Z" fill="#3F3F46"/>
<path fill-rule="evenodd" clip-rule="evenodd" d="M1282 1887.32L949.49 1496.64L947.965 1497.93L1280.48 1888.62L1282 1887.32Z" fill="#3F3F46"/>
<path fill-rule="evenodd" clip-rule="evenodd" d="M1644.57 1995.5L1800.81 1538.71L1798.92 1538.06L1642.68 1994.86L1644.57 1995.5Z" fill="#3F3F46"/>
<path fill-rule="evenodd" clip-rule="evenodd" d="M2479.87 1893.33L2592.04 1682.96L2590.28 1682.02L2478.1 1892.38L2479.87 1893.33Z" fill="#3F3F46"/>
<path fill-rule="evenodd" clip-rule="evenodd" d="M2479.87 1893.33L2147.35 1428.52L2145.72 1429.68L2478.24 1894.5L2479.87 1893.33Z" fill="#3F3F46"/>
<path fill-rule="evenodd" clip-rule="evenodd" d="M2247.51 2021.56L2592.04 1682.96L2590.64 1681.54L2246.11 2020.12L2247.51 2021.56Z" fill="#3F3F46"/>
<path fill-rule="evenodd" clip-rule="evenodd" d="M2151.36 1558.74L2592.04 1682.96L2592.58 1681.03L2151.9 1556.82L2151.36 1558.74Z" fill="#3F3F46"/>
<path fill-rule="evenodd" clip-rule="evenodd" d="M2151.36 1558.74L2041.19 1556.74L2041.15 1558.74L2151.32 1560.75L2151.36 1558.74Z" fill="#3F3F46"/>
<path fill-rule="evenodd" clip-rule="evenodd" d="M1800.81 1538.71L2041.19 1556.74L2041.34 1554.74L1800.96 1536.71L1800.81 1538.71Z" fill="#3F3F46"/>
<path fill-rule="evenodd" clip-rule="evenodd" d="M2592.04 1959.44L2916.55 2021.56L2916.93 2019.59L2592.42 1957.48L2592.04 1959.44Z" fill="#3F3F46"/>
<path fill-rule="evenodd" clip-rule="evenodd" d="M2592.04 1959.44L2456.83 2163.8H2458.84L2593.72 1960.55L2592.04 1959.44Z" fill="#3F3F46"/>
<path fill-rule="evenodd" clip-rule="evenodd" d="M2592.04 1959.44L2479.87 1893.33L2478.85 1895.05L2591.03 1961.17L2592.04 1959.44Z" fill="#3F3F46"/>
<path fill-rule="evenodd" clip-rule="evenodd" d="M2247.51 2025.56L2479.87 1893.33L2478.88 1891.59L2246.52 2023.82L2247.51 2025.56Z" fill="#3F3F46"/>
<path fill-rule="evenodd" clip-rule="evenodd" d="M2379.71 2163.8L2479.87 1893.33L2477.99 1892.63L2377.71 2163.8H2379.71Z" fill="#3F3F46"/>
<path fill-rule="evenodd" clip-rule="evenodd" d="M2247.51 2025.56V2163.8H2249.51V2025.56H2247.51Z" fill="#3F3F46"/>
<path fill-rule="evenodd" clip-rule="evenodd" d="M2247.51 2025.56L2184.41 2163.8H2186.41L2249.33 2026.39L2247.51 2025.56Z" fill="#3F3F46"/>
<path fill-rule="evenodd" clip-rule="evenodd" d="M3186.98 2071.64L2592.04 1682.96L2590.95 1684.64L3185.87 2073.32L3186.98 2071.64Z" fill="#3F3F46"/>
<path fill-rule="evenodd" clip-rule="evenodd" d="M3186.98 2071.64L3265.09 2163.8H3269.1L3188.5 2070.34L3186.98 2071.64Z" fill="#3F3F46"/>
<path fill-rule="evenodd" clip-rule="evenodd" d="M3186.98 2071.64L3203 2163.8H3205L3188.94 2071.3L3186.98 2071.64Z" fill="#3F3F46"/>
<path fill-rule="evenodd" clip-rule="evenodd" d="M3186.97 2071.64L2916.55 2021.56L2916.18 2023.52L3186.6 2073.61L3186.97 2071.64Z" fill="#3F3F46"/>
<path fill-rule="evenodd" clip-rule="evenodd" d="M3168.94 2163.8L2916.55 2021.56L2915.57 2023.3L3164.94 2163.8H3168.94Z" fill="#3F3F46"/>
<path fill-rule="evenodd" clip-rule="evenodd" d="M3068.79 2163.8L2916.55 2021.56L2915.18 2023.02L3065.78 2163.8H3068.79Z" fill="#3F3F46"/>
<path fill-rule="evenodd" clip-rule="evenodd" d="M2691.2 2163.8L2916.56 2021.56L2915.48 2019.86L2687.19 2163.8H2691.2Z" fill="#3F3F46"/>
<path fill-rule="evenodd" clip-rule="evenodd" d="M2872.48 853.512L2992.67 1200.12L2994.56 1199.46L2874.38 852.855L2872.48 853.512Z" fill="#3F3F46"/>
<path fill-rule="evenodd" clip-rule="evenodd" d="M2654.15 1580.78L2992.67 1200.12L2991.18 1198.78L2652.64 1579.45L2654.15 1580.78Z" fill="#3F3F46"/>
<path fill-rule="evenodd" clip-rule="evenodd" d="M2872.48 853.512L2812.39 1296.29L2814.38 1296.56L2874.46 853.782L2872.48 853.512Z" fill="#3F3F46"/>
<path fill-rule="evenodd" clip-rule="evenodd" d="M3200.99 1358.39L3615.64 1580.78L3616.59 1579.02L3201.95 1356.62L3200.99 1358.39Z" fill="#3F3F46"/>
<path fill-rule="evenodd" clip-rule="evenodd" d="M3846 1580.78H3615.64V1582.79H3846V1580.78Z" fill="#3F3F46"/>
<path fill-rule="evenodd" clip-rule="evenodd" d="M3846 1999.52L3615.64 1580.78L3613.89 1581.74L3846 2004.52V1999.52Z" fill="#3F3F46"/>
<path fill-rule="evenodd" clip-rule="evenodd" d="M3417.33 1765.11L3615.64 1580.78L3614.28 1579.32L3415.97 1763.64L3417.33 1765.11Z" fill="#3F3F46"/>
<path fill-rule="evenodd" clip-rule="evenodd" d="M3417.34 1765.11L3846 2019.55V2016.54L3418.36 1763.38L3417.34 1765.11Z" fill="#3F3F46"/>
<path fill-rule="evenodd" clip-rule="evenodd" d="M3417.33 1765.11L3200.99 1358.39L3199.22 1359.33L3415.56 1766.05L3417.33 1765.11Z" fill="#3F3F46"/>
<path fill-rule="evenodd" clip-rule="evenodd" d="M2992.67 1200.12L3561.56 867.537L3560.54 865.807L2991.66 1198.39L2992.67 1200.12Z" fill="#3F3F46"/>
<path d="M2223.48 2025.56C2223.48 2038.84 2234.23 2049.6 2247.51 2049.6C2260.78 2049.6 2271.55 2038.84 2271.55 2025.56C2271.55 2012.29 2260.78 2001.52 2247.51 2001.52C2234.23 2001.52 2223.48 2012.29 2223.48 2025.56Z" fill="#3F3F46"/>
<path d="M3397.3 1765.11C3397.3 1776.17 3406.27 1785.14 3417.33 1785.14C3428.39 1785.14 3437.36 1776.17 3437.36 1765.11C3437.36 1754.04 3428.39 1745.07 3417.33 1745.07C3406.27 1745.07 3397.3 1754.04 3397.3 1765.11Z" fill="#3F3F46"/>
<path d="M3166.94 2071.64C3166.94 2082.71 3175.91 2091.67 3186.97 2091.67C3198.03 2091.67 3207 2082.71 3207 2071.64C3207 2060.58 3198.03 2051.61 3186.97 2051.61C3175.91 2051.61 3166.94 2060.58 3166.94 2071.64Z" fill="#3F3F46"/>
<path d="M3541.52 867.537C3541.52 878.601 3550.49 887.571 3561.55 887.571C3572.62 887.571 3581.58 878.601 3581.58 867.537C3581.58 856.471 3572.62 847.501 3561.55 847.501C3550.49 847.501 3541.52 856.471 3541.52 867.537Z" fill="#3F3F46"/>
<path d="M1818.84 1422.51C1818.84 1433.57 1827.81 1442.54 1838.88 1442.54C1849.93 1442.54 1858.9 1433.57 1858.9 1422.51C1858.9 1411.44 1849.93 1402.47 1838.88 1402.47C1827.81 1402.47 1818.84 1411.44 1818.84 1422.51Z" fill="#3F3F46"/>
<path d="M1556.44 1382.43C1556.44 1393.5 1565.41 1402.47 1576.46 1402.47C1587.52 1402.47 1596.49 1393.5 1596.49 1382.43C1596.49 1371.37 1587.52 1362.4 1576.46 1362.4C1565.41 1362.4 1556.44 1371.37 1556.44 1382.43Z" fill="#3F3F46"/>
<path d="M681.07 887.571C681.07 898.637 690.039 907.607 701.102 907.607C712.165 907.607 721.133 898.637 721.133 887.571C721.133 876.507 712.165 867.537 701.102 867.537C690.039 867.537 681.07 876.507 681.07 887.571Z" fill="#3F3F46"/>
<path d="M50.0898 999.772C50.0898 1010.84 59.0582 1019.8 70.1209 1019.8C81.184 1019.8 90.1521 1010.84 90.1521 999.772C90.1521 988.708 81.184 979.733 70.1209 979.733C59.0582 979.733 50.0898 988.708 50.0898 999.772Z" fill="#3F3F46"/>
<path d="M70.1211 284.518C70.1211 293.37 77.2958 300.546 86.1461 300.546C94.9963 300.546 102.172 293.37 102.172 284.518C102.172 275.666 94.9963 268.49 86.1461 268.49C77.2958 268.49 70.1211 275.666 70.1211 284.518Z" fill="#3F3F46"/>
<path d="M378.602 328.595C378.602 337.446 385.776 344.623 394.626 344.623C403.476 344.623 410.651 337.446 410.651 328.595C410.651 319.743 403.476 312.567 394.626 312.567C385.776 312.567 378.602 319.743 378.602 328.595Z" fill="#3F3F46"/>
<path d="M616.969 693.232C616.969 702.085 624.144 709.26 632.994 709.26C641.844 709.26 649.019 702.085 649.019 693.232C649.019 684.38 641.844 677.204 632.994 677.204C624.144 677.204 616.969 684.38 616.969 693.232Z" fill="#3F3F46"/>
<path d="M498.789 1073.89C498.789 1082.75 505.964 1089.92 514.814 1089.92C523.665 1089.92 530.84 1082.75 530.84 1073.89C530.84 1065.05 523.665 1057.87 514.814 1057.87C505.964 1057.87 498.789 1065.05 498.789 1073.89Z" fill="#3F3F46"/>
<path d="M1119.76 1306.31C1119.76 1315.15 1126.93 1322.33 1135.78 1322.33C1144.63 1322.33 1151.81 1315.15 1151.81 1306.31C1151.81 1297.45 1144.63 1290.28 1135.78 1290.28C1126.93 1290.28 1119.76 1297.45 1119.76 1306.31Z" fill="#3F3F46"/>
<path d="M933.461 1496.64C933.461 1505.49 940.636 1512.66 949.486 1512.66C958.336 1512.66 965.512 1505.49 965.512 1496.64C965.512 1487.78 958.336 1480.61 949.486 1480.61C940.636 1480.61 933.461 1487.78 933.461 1496.64Z" fill="#3F3F46"/>
<path d="M1001.57 1686.97C1001.57 1695.82 1008.74 1702.99 1017.6 1702.99C1026.45 1702.99 1033.62 1695.82 1033.62 1686.97C1033.62 1678.12 1026.45 1670.94 1017.6 1670.94C1008.74 1670.94 1001.57 1678.12 1001.57 1686.97Z" fill="#3F3F46"/>
<path d="M1191.86 1574.77C1191.86 1583.62 1199.04 1590.8 1207.89 1590.8C1216.74 1590.8 1223.91 1583.62 1223.91 1574.77C1223.91 1565.92 1216.74 1558.74 1207.89 1558.74C1199.04 1558.74 1191.86 1565.92 1191.86 1574.77Z" fill="#3F3F46"/>
<path d="M1628.54 1995.5C1628.54 2004.36 1635.73 2011.53 1644.57 2011.53C1653.42 2011.53 1660.59 2004.36 1660.59 1995.5C1660.59 1986.66 1653.42 1979.48 1644.57 1979.48C1635.73 1979.48 1628.54 1986.66 1628.54 1995.5Z" fill="#3F3F46"/>
<path d="M1548.42 2093.68C1548.42 2102.53 1555.59 2109.71 1564.44 2109.71C1573.3 2109.71 1580.47 2102.53 1580.47 2093.68C1580.47 2084.82 1573.3 2077.65 1564.44 2077.65C1555.59 2077.65 1548.42 2084.82 1548.42 2093.68Z" fill="#3F3F46"/>
<path d="M1784.79 1538.71C1784.79 1547.56 1791.96 1554.74 1800.81 1554.74C1809.67 1554.74 1816.84 1547.56 1816.84 1538.71C1816.84 1529.85 1809.67 1522.68 1800.81 1522.68C1791.96 1522.68 1784.79 1529.85 1784.79 1538.71Z" fill="#3F3F46"/>
<path d="M2463.84 1893.33C2463.84 1902.18 2471.02 1909.36 2479.87 1909.36C2488.72 1909.36 2495.89 1902.18 2495.89 1893.33C2495.89 1884.48 2488.72 1877.31 2479.87 1877.31C2471.02 1877.31 2463.84 1884.48 2463.84 1893.33Z" fill="#3F3F46"/>
<path d="M2576.02 1959.44C2576.02 1968.3 2583.2 1975.47 2592.04 1975.47C2600.89 1975.47 2608.07 1968.3 2608.07 1959.44C2608.07 1950.59 2600.89 1943.41 2592.04 1943.41C2583.2 1943.41 2576.02 1950.59 2576.02 1959.44Z" fill="#3F3F46"/>
<path d="M2463.84 1580.78C2463.84 1589.64 2471.02 1596.81 2479.87 1596.81C2488.72 1596.81 2495.89 1589.64 2495.89 1580.78C2495.89 1571.93 2488.72 1564.75 2479.87 1564.75C2471.02 1564.75 2463.84 1571.93 2463.84 1580.78Z" fill="#3F3F46"/>
<path d="M2796.36 1296.29C2796.36 1305.13 2803.54 1312.32 2812.39 1312.32C2821.24 1312.32 2828.41 1305.13 2828.41 1296.29C2828.41 1287.44 2821.24 1280.26 2812.39 1280.26C2803.54 1280.26 2796.36 1287.44 2796.36 1296.29Z" fill="#3F3F46"/>
<path d="M2976.64 1200.12C2976.64 1208.97 2983.83 1216.15 2992.67 1216.15C3001.52 1216.15 3008.69 1208.97 3008.69 1200.12C3008.69 1191.27 3001.52 1184.09 2992.67 1184.09C2983.83 1184.09 2976.64 1191.27 2976.64 1200.12Z" fill="#3F3F46"/>
<path d="M3184.97 1358.39C3184.97 1367.25 3192.14 1374.42 3200.99 1374.42C3209.85 1374.42 3217.02 1367.25 3217.02 1358.39C3217.02 1349.54 3209.85 1342.37 3200.99 1342.37C3192.14 1342.37 3184.97 1349.54 3184.97 1358.39Z" fill="#3F3F46"/>
<path d="M3599.61 1580.78C3599.61 1589.64 3606.78 1596.81 3615.64 1596.81C3624.49 1596.81 3631.66 1589.64 3631.66 1580.78C3631.66 1571.93 3624.49 1564.75 3615.64 1564.75C3606.78 1564.75 3599.61 1571.93 3599.61 1580.78Z" fill="#3F3F46"/>
<path d="M2135.33 1558.74C2135.33 1567.6 2142.51 1574.77 2151.36 1574.77C2160.21 1574.77 2167.38 1567.6 2167.38 1558.74C2167.38 1549.9 2160.21 1542.71 2151.36 1542.71C2142.51 1542.71 2135.33 1549.9 2135.33 1558.74Z" fill="#3F3F46"/>
<path d="M2143.34 1763.1C2143.34 1771.96 2150.52 1779.13 2159.37 1779.13C2168.22 1779.13 2175.39 1771.96 2175.39 1763.1C2175.39 1754.25 2168.22 1747.07 2159.37 1747.07C2150.52 1747.07 2143.34 1754.25 2143.34 1763.1Z" fill="#3F3F46"/>
<path d="M3609.63 1232.18C3609.63 1238.82 3615.01 1244.19 3621.65 1244.19C3628.28 1244.19 3633.67 1238.82 3633.67 1232.18C3633.67 1225.54 3628.28 1220.15 3621.65 1220.15C3615.01 1220.15 3609.63 1225.54 3609.63 1232.18Z" fill="#3F3F46"/>
<path d="M3385.29 1093.94C3385.29 1100.58 3390.66 1105.95 3397.3 1105.95C3403.93 1105.95 3409.32 1100.58 3409.32 1093.94C3409.32 1087.29 3403.93 1081.91 3397.3 1081.91C3390.66 1081.91 3385.29 1087.29 3385.29 1093.94Z" fill="#3F3F46"/>
<path d="M2904.54 2021.56C2904.54 2028.2 2909.91 2033.57 2916.55 2033.57C2923.18 2033.57 2928.57 2028.2 2928.57 2021.56C2928.57 2014.91 2923.18 2009.53 2916.55 2009.53C2909.91 2009.53 2904.54 2014.91 2904.54 2021.56Z" fill="#3F3F46"/>
<path d="M2580.02 1682.96C2580.02 1689.6 2585.4 1694.98 2592.04 1694.98C2598.68 1694.98 2604.06 1689.6 2604.06 1682.96C2604.06 1676.32 2598.68 1670.94 2592.04 1670.94C2585.4 1670.94 2580.02 1676.32 2580.02 1682.96Z" fill="#3F3F46"/>
<path d="M2642.12 1580.78C2642.12 1587.42 2647.51 1592.8 2654.15 1592.8C2660.78 1592.8 2666.17 1587.42 2666.17 1580.78C2666.17 1574.14 2660.78 1568.76 2654.15 1568.76C2647.51 1568.76 2642.12 1574.14 2642.12 1580.78Z" fill="#3F3F46"/>
<path d="M2860.46 853.512C2860.46 860.151 2865.85 865.533 2872.49 865.533C2879.12 865.533 2884.51 860.151 2884.51 853.512C2884.51 846.873 2879.12 841.491 2872.49 841.491C2865.85 841.491 2860.46 846.873 2860.46 853.512Z" fill="#3F3F46"/>
<path d="M2135.33 1428.52C2135.33 1435.16 2140.72 1440.54 2147.35 1440.54C2153.99 1440.54 2159.38 1435.16 2159.38 1428.52C2159.38 1421.88 2153.99 1416.5 2147.35 1416.5C2140.72 1416.5 2135.33 1421.88 2135.33 1428.52Z" fill="#3F3F46"/>
<path d="M2029.17 1556.74C2029.17 1563.38 2034.54 1568.76 2041.19 1568.76C2047.83 1568.76 2053.2 1563.38 2053.2 1556.74C2053.2 1550.11 2047.83 1544.72 2041.19 1544.72C2034.54 1544.72 2029.17 1550.11 2029.17 1556.74Z" fill="#3F3F46"/>
<path d="M1444.26 1448.55C1444.26 1455.19 1449.63 1460.58 1456.28 1460.58C1462.92 1460.58 1468.29 1455.19 1468.29 1448.55C1468.29 1441.91 1462.92 1436.53 1456.28 1436.53C1449.63 1436.53 1444.26 1441.91 1444.26 1448.55Z" fill="#3F3F46"/>
<path d="M1362.13 1490.62C1362.13 1497.26 1367.51 1502.65 1374.15 1502.65C1380.79 1502.65 1386.17 1497.26 1386.17 1490.62C1386.17 1483.99 1380.79 1478.6 1374.15 1478.6C1367.51 1478.6 1362.13 1483.99 1362.13 1490.62Z" fill="#3F3F46"/>
<path d="M1269.99 1887.32C1269.99 1893.96 1275.38 1899.33 1282.01 1899.33C1288.65 1899.33 1294.02 1893.96 1294.02 1887.32C1294.02 1880.68 1288.65 1875.3 1282.01 1875.3C1275.38 1875.3 1269.99 1880.68 1269.99 1887.32Z" fill="#3F3F46"/>
<path d="M1356.12 1951.43C1356.12 1958.07 1361.5 1963.45 1368.14 1963.45C1374.78 1963.45 1380.16 1958.07 1380.16 1951.43C1380.16 1944.8 1374.78 1939.41 1368.14 1939.41C1361.5 1939.41 1356.12 1944.8 1356.12 1951.43Z" fill="#3F3F46"/>
<path d="M1239.94 2055.61C1239.94 2062.25 1245.32 2067.63 1251.96 2067.63C1258.6 2067.63 1263.98 2062.25 1263.98 2055.61C1263.98 2048.97 1258.6 2043.59 1251.96 2043.59C1245.32 2043.59 1239.94 2048.97 1239.94 2055.61Z" fill="#3F3F46"/>
<path d="M578.91 1562.76C578.91 1569.39 584.291 1574.77 590.929 1574.77C597.566 1574.77 602.947 1569.39 602.947 1562.76C602.947 1556.12 597.566 1550.73 590.929 1550.73C584.291 1550.73 578.91 1556.12 578.91 1562.76Z" fill="#3F3F46"/>
<path d="M887.391 1077.91C887.391 1084.55 892.771 1089.92 899.41 1089.92C906.048 1089.92 911.429 1084.55 911.429 1077.91C911.429 1071.26 906.048 1065.89 899.41 1065.89C892.771 1065.89 887.391 1071.26 887.391 1077.91Z" fill="#3F3F46"/>
<path d="M266.422 887.571C266.422 894.211 271.804 899.593 278.441 899.593C285.079 899.593 290.46 894.211 290.46 887.571C290.46 880.933 285.079 875.551 278.441 875.551C271.804 875.551 266.422 880.933 266.422 887.571Z" fill="#3F3F46"/>
<path d="M428.68 805.428C428.68 812.067 434.06 817.449 440.698 817.449C447.336 817.449 452.717 812.067 452.717 805.428C452.717 798.789 447.336 793.407 440.698 793.407C434.06 793.407 428.68 798.789 428.68 805.428Z" fill="#3F3F46"/>
<path d="M354.562 494.885C354.562 501.525 359.943 506.907 366.581 506.907C373.22 506.907 378.6 501.525 378.6 494.885C378.6 488.247 373.22 482.865 366.581 482.865C359.943 482.865 354.562 488.247 354.562 494.885Z" fill="#3F3F46"/>
<path d="M266.422 430.773C266.422 437.413 271.804 442.795 278.441 442.795C285.079 442.795 290.46 437.413 290.46 430.773C290.46 424.135 285.079 418.753 278.441 418.753C271.804 418.753 266.422 424.135 266.422 430.773Z" fill="#3F3F46"/>
<path d="M448.711 0.0210493C448.711 6.66003 454.092 12.042 460.729 12.042C467.367 12.042 472.748 6.66003 472.748 0.0210493C472.748 -6.61801 467.367 -12 460.729 -12C454.092 -12 448.711 -6.61801 448.711 0.0210493Z" fill="#3F3F46"/>
<path d="M-6 378.682C-6 385.322 -0.618977 390.704 6.01864 390.704C12.6565 390.704 18.0375 385.322 18.0375 378.682C18.0375 372.043 12.6565 366.662 6.01864 366.662C-0.618977 366.662 -6 372.043 -6 378.682Z" fill="#3F3F46"/>
<path d="M1047.64 815.446C1047.64 822.084 1053.02 827.466 1059.66 827.466C1066.3 827.466 1071.68 822.084 1071.68 815.446C1071.68 808.807 1066.3 803.424 1059.66 803.424C1053.02 803.424 1047.64 808.807 1047.64 815.446Z" fill="#3F3F46"/>
<path fill-rule="evenodd" clip-rule="evenodd" d="M3549.54 1723.04L3813.95 1715.02L3813.89 1713.01L3549.48 1721.03L3549.54 1723.04Z" fill="#3F3F46"/>
<path fill-rule="evenodd" clip-rule="evenodd" d="M3469.42 1911.36L3813.95 1715.02L3812.96 1713.27L3468.43 1909.62L3469.42 1911.36Z" fill="#3F3F46"/>
<path fill-rule="evenodd" clip-rule="evenodd" d="M3846 1773.12L3813.95 1715.02L3812.2 1715.98L3846 1778.13V1773.12Z" fill="#3F3F46"/>
<path fill-rule="evenodd" clip-rule="evenodd" d="M3549.53 1723.04L3525.5 2163.8H3527.51L3551.53 1723.15L3549.53 1723.04Z" fill="#3F3F46"/>
<path fill-rule="evenodd" clip-rule="evenodd" d="M3549.54 1723.04L3241.06 1528.69L3239.99 1530.38L3548.47 1724.73L3549.54 1723.04Z" fill="#3F3F46"/>
<path fill-rule="evenodd" clip-rule="evenodd" d="M3215.02 1162.05L3241.06 1528.69L3243.05 1528.55L3217.01 1161.91L3215.02 1162.05Z" fill="#3F3F46"/>
<path fill-rule="evenodd" clip-rule="evenodd" d="M3030.73 1368.41L3241.06 1528.69L3242.27 1527.09L3031.94 1366.82L3030.73 1368.41Z" fill="#3F3F46"/>
<path fill-rule="evenodd" clip-rule="evenodd" d="M3215.01 1162.05L3030.73 1368.41L3032.23 1369.74L3216.51 1163.38L3215.01 1162.05Z" fill="#3F3F46"/>
<path fill-rule="evenodd" clip-rule="evenodd" d="M3215.01 1162.05L2616.08 1432.52L2616.91 1434.35L3215.84 1163.87L3215.01 1162.05Z" fill="#3F3F46"/>
<path fill-rule="evenodd" clip-rule="evenodd" d="M2535.96 1073.89L2616.08 1432.52L2618.03 1432.09L2537.91 1073.46L2535.96 1073.89Z" fill="#3F3F46"/>
<path fill-rule="evenodd" clip-rule="evenodd" d="M2535.96 1073.89L2425.79 1506.65L2427.73 1507.15L2537.89 1074.39L2535.96 1073.89Z" fill="#3F3F46"/>
<path fill-rule="evenodd" clip-rule="evenodd" d="M2239.5 1779.13L2425.79 1506.65L2424.13 1505.52L2237.84 1778L2239.5 1779.13Z" fill="#3F3F46"/>
<path fill-rule="evenodd" clip-rule="evenodd" d="M2239.5 1779.13L2175.4 1871.29L2177.04 1872.43L2241.14 1780.27L2239.5 1779.13Z" fill="#3F3F46"/>
<path fill-rule="evenodd" clip-rule="evenodd" d="M2139.34 2143.77L2175.39 1871.29L2173.41 1871.03L2137.36 2143.51L2139.34 2143.77Z" fill="#3F3F46"/>
<path fill-rule="evenodd" clip-rule="evenodd" d="M2139.34 2143.77L2199.43 2163.8H2205.45L2139.98 2141.87L2139.34 2143.77Z" fill="#3F3F46"/>
<path fill-rule="evenodd" clip-rule="evenodd" d="M2139.34 2143.77L2069.23 1753.09L2067.26 1753.44L2137.37 2144.12L2139.34 2143.77Z" fill="#3F3F46"/>
<path fill-rule="evenodd" clip-rule="evenodd" d="M1746.73 1694.98L2069.24 1753.09L2069.59 1751.11L1747.08 1693.01L1746.73 1694.98Z" fill="#3F3F46"/>
<path fill-rule="evenodd" clip-rule="evenodd" d="M1746.73 1694.98L1634.55 1680.95L1634.31 1682.95L1746.48 1696.97L1746.73 1694.98Z" fill="#3F3F46"/>
<path fill-rule="evenodd" clip-rule="evenodd" d="M1394.18 1642.9L1634.55 1680.95L1634.87 1678.98L1394.49 1640.91L1394.18 1642.9Z" fill="#3F3F46"/>
<path fill-rule="evenodd" clip-rule="evenodd" d="M1746.73 1694.98L1728.7 1899.34L1730.7 1899.52L1748.73 1695.16L1746.73 1694.98Z" fill="#3F3F46"/>
<path fill-rule="evenodd" clip-rule="evenodd" d="M1448.26 1530.7L1728.71 1899.34L1730.3 1898.13L1449.86 1529.48L1448.26 1530.7Z" fill="#3F3F46"/>
<path fill-rule="evenodd" clip-rule="evenodd" d="M1193.87 2077.65L1728.7 1899.34L1728.07 1897.44L1193.23 2075.75L1193.87 2077.65Z" fill="#3F3F46"/>
<path fill-rule="evenodd" clip-rule="evenodd" d="M1193.87 2077.65L1334.08 1779.13L1332.27 1778.28L1192.05 2076.8L1193.87 2077.65Z" fill="#3F3F46"/>
<path fill-rule="evenodd" clip-rule="evenodd" d="M1394.18 1642.9L1334.09 1779.13L1335.92 1779.94L1396.02 1643.7L1394.18 1642.9Z" fill="#3F3F46"/>
<path fill-rule="evenodd" clip-rule="evenodd" d="M1394.18 1642.9L1448.26 1530.7L1446.46 1529.82L1392.38 1642.02L1394.18 1642.9Z" fill="#3F3F46"/>
<path fill-rule="evenodd" clip-rule="evenodd" d="M1394.18 1642.9L1191.86 1460.58L1190.53 1462.06L1392.84 1644.38L1394.18 1642.9Z" fill="#3F3F46"/>
<path fill-rule="evenodd" clip-rule="evenodd" d="M1394.18 1642.9L1063.66 1512.66L1062.93 1514.53L1393.45 1644.75L1394.18 1642.9Z" fill="#3F3F46"/>
<path fill-rule="evenodd" clip-rule="evenodd" d="M1394.18 1642.9L803.258 1612.84L803.156 1614.84L1394.08 1644.89L1394.18 1642.9Z" fill="#3F3F46"/>
<path fill-rule="evenodd" clip-rule="evenodd" d="M1063.66 1512.66L1191.86 1460.58L1191.11 1458.72L1062.91 1510.8L1063.66 1512.66Z" fill="#3F3F46"/>
<path fill-rule="evenodd" clip-rule="evenodd" d="M1063.66 1512.66L977.531 1546.73L978.268 1548.58L1064.4 1514.53L1063.66 1512.66Z" fill="#3F3F46"/>
<path fill-rule="evenodd" clip-rule="evenodd" d="M803.261 1612.84L977.533 1546.73L976.823 1544.85L802.551 1610.97L803.261 1612.84Z" fill="#3F3F46"/>
<path fill-rule="evenodd" clip-rule="evenodd" d="M1193.87 2077.65L1263.98 2165.8L1265.54 2164.56L1195.43 2076.41L1193.87 2077.65Z" fill="#3F3F46"/>
<path fill-rule="evenodd" clip-rule="evenodd" d="M1193.87 2077.65L799.254 2091.67L799.324 2093.68L1193.94 2079.66L1193.87 2077.65Z" fill="#3F3F46"/>
<path fill-rule="evenodd" clip-rule="evenodd" d="M775.218 2165.8L799.256 2091.67L797.35 2091.06L773.312 2165.18L775.218 2165.8Z" fill="#3F3F46"/>
<path fill-rule="evenodd" clip-rule="evenodd" d="M881.38 2165.8L799.253 2091.67L797.91 2093.16L880.039 2167.29L881.38 2165.8Z" fill="#3F3F46"/>
<path fill-rule="evenodd" clip-rule="evenodd" d="M1103.73 2161.8L799.254 2091.67L798.805 2093.63L1103.28 2163.75L1103.73 2161.8Z" fill="#3F3F46"/>
<path fill-rule="evenodd" clip-rule="evenodd" d="M1103.73 2161.8L927.454 2005.53L926.125 2007.02L1102.4 2163.3L1103.73 2161.8Z" fill="#3F3F46"/>
<path fill-rule="evenodd" clip-rule="evenodd" d="M843.32 1929.39L927.451 2005.53L928.795 2004.04L844.665 1927.9L843.32 1929.39Z" fill="#3F3F46"/>
<path fill-rule="evenodd" clip-rule="evenodd" d="M843.324 1929.39L602.949 1705L601.582 1706.46L841.957 1930.85L843.324 1929.39Z" fill="#3F3F46"/>
<path fill-rule="evenodd" clip-rule="evenodd" d="M843.322 1929.39L554.872 1504.65L553.215 1505.78L841.664 1930.52L843.322 1929.39Z" fill="#3F3F46"/>
<path fill-rule="evenodd" clip-rule="evenodd" d="M803.261 1612.84L602.949 1705L603.786 1706.82L804.099 1614.66L803.261 1612.84Z" fill="#3F3F46"/>
<path fill-rule="evenodd" clip-rule="evenodd" d="M757.19 1338.36L602.949 1705L604.796 1705.78L759.036 1339.14L757.19 1338.36Z" fill="#3F3F46"/>
<path fill-rule="evenodd" clip-rule="evenodd" d="M757.186 1338.36L554.871 1504.65L556.143 1506.2L758.458 1339.91L757.186 1338.36Z" fill="#3F3F46"/>
<path fill-rule="evenodd" clip-rule="evenodd" d="M372.59 875.551L554.874 1504.65L556.798 1504.09L374.514 874.993L372.59 875.551Z" fill="#3F3F46"/>
<path fill-rule="evenodd" clip-rule="evenodd" d="M757.188 1338.36L548.863 1087.93L547.324 1089.2L755.648 1339.64L757.188 1338.36Z" fill="#3F3F46"/>
<path fill-rule="evenodd" clip-rule="evenodd" d="M372.59 875.551L548.864 1087.93L550.406 1086.64L374.132 874.271L372.59 875.551Z" fill="#3F3F46"/>
<path fill-rule="evenodd" clip-rule="evenodd" d="M372.591 875.551L735.155 843.495L734.98 841.499L372.414 873.555L372.591 875.551Z" fill="#3F3F46"/>
<path fill-rule="evenodd" clip-rule="evenodd" d="M372.586 875.551L166.266 1041.84L167.523 1043.4L373.843 877.111L372.586 875.551Z" fill="#3F3F46"/>
<path fill-rule="evenodd" clip-rule="evenodd" d="M372.591 875.551L122.201 765.359L121.395 767.192L371.785 877.385L372.591 875.551Z" fill="#3F3F46"/>
<path fill-rule="evenodd" clip-rule="evenodd" d="M0.0117188 765.359H122.202V763.354H0.0117188V765.359Z" fill="#3F3F46"/>
<path fill-rule="evenodd" clip-rule="evenodd" d="M-1.99302 815.446L122.2 765.359L121.451 763.5L-2.74219 813.588L-1.99302 815.446Z" fill="#3F3F46"/>
<path fill-rule="evenodd" clip-rule="evenodd" d="M735.153 843.495L122.198 765.359L121.945 767.346L734.9 845.482L735.153 843.495Z" fill="#3F3F46"/>
<path fill-rule="evenodd" clip-rule="evenodd" d="M372.588 875.551L324.513 677.204L322.566 677.677L370.641 876.022L372.588 875.551Z" fill="#3F3F46"/>
<path fill-rule="evenodd" clip-rule="evenodd" d="M84.1406 452.812L324.515 677.204L325.882 675.739L85.5075 451.347L84.1406 452.812Z" fill="#3F3F46"/>
<path fill-rule="evenodd" clip-rule="evenodd" d="M84.1415 452.812L0.0102726 368.665L-1.40625 370.082L82.7248 454.229L84.1415 452.812Z" fill="#3F3F46"/>
<path fill-rule="evenodd" clip-rule="evenodd" d="M128.212 286.522H0.0117188V288.525H128.212V286.522Z" fill="#3F3F46"/>
<path fill-rule="evenodd" clip-rule="evenodd" d="M128.211 286.522L0.0111425 164.308L-1.37109 165.759L126.829 287.973L128.211 286.522Z" fill="#3F3F46"/>
<path fill-rule="evenodd" clip-rule="evenodd" d="M128.211 286.522L224.361 0.0211313L222.462 -0.616455L126.312 285.884L128.211 286.522Z" fill="#3F3F46"/>
<path fill-rule="evenodd" clip-rule="evenodd" d="M0.0100694 108.211L198.318 0.0213305L197.359 -1.73755L-0.949219 106.451L0.0100694 108.211Z" fill="#3F3F46"/>
<path fill-rule="evenodd" clip-rule="evenodd" d="M166.267 1041.84L324.513 677.204L322.676 676.406L164.43 1041.04L166.267 1041.84Z" fill="#3F3F46"/>
<path fill-rule="evenodd" clip-rule="evenodd" d="M84.1406 452.812L372.59 875.551L374.244 874.422L85.795 451.683L84.1406 452.812Z" fill="#3F3F46"/>
<path fill-rule="evenodd" clip-rule="evenodd" d="M188.303 1536.7L554.874 1504.65L554.7 1502.66L188.129 1534.71L188.303 1536.7Z" fill="#3F3F46"/>
<path fill-rule="evenodd" clip-rule="evenodd" d="M188.301 1536.7L803.259 1612.84L803.505 1610.85L188.547 1534.72L188.301 1536.7Z" fill="#3F3F46"/>
<path fill-rule="evenodd" clip-rule="evenodd" d="M1746.73 1694.98L1756.74 1568.76L1754.75 1568.6L1744.73 1694.83L1746.73 1694.98Z" fill="#3F3F46"/>
<path fill-rule="evenodd" clip-rule="evenodd" d="M1756.74 1568.76L2037.19 2063.63L2038.92 2062.64L1758.49 1567.77L1756.74 1568.76Z" fill="#3F3F46"/>
<path fill-rule="evenodd" clip-rule="evenodd" d="M2530.95 2163.8L2175.4 1871.29L2174.12 1872.84L2527.94 2163.8H2530.95Z" fill="#3F3F46"/>
<path fill-rule="evenodd" clip-rule="evenodd" d="M2037.18 2063.63L2175.39 1871.29L2173.77 1870.12L2035.56 2062.45L2037.18 2063.63Z" fill="#3F3F46"/>
<path fill-rule="evenodd" clip-rule="evenodd" d="M1746.73 1694.98L2175.4 1871.29L2176.16 1869.44L1747.49 1693.13L1746.73 1694.98Z" fill="#3F3F46"/>
<path fill-rule="evenodd" clip-rule="evenodd" d="M1788.79 2163.8L2175.39 1871.29L2174.19 1869.69L1787.59 2162.2L1788.79 2163.8Z" fill="#3F3F46"/>
<path fill-rule="evenodd" clip-rule="evenodd" d="M2037.18 2063.63L2139.34 2143.77L2140.58 2142.19L2038.42 2062.05L2037.18 2063.63Z" fill="#3F3F46"/>
<path fill-rule="evenodd" clip-rule="evenodd" d="M2037.18 2063.63L1986.11 2163.8H1988.1L2038.97 2064.54L2037.18 2063.63Z" fill="#3F3F46"/>
<path fill-rule="evenodd" clip-rule="evenodd" d="M2037.18 2063.63L1788.79 2163.8H1793.8L2037.93 2065.48L2037.18 2063.63Z" fill="#3F3F46"/>
<path fill-rule="evenodd" clip-rule="evenodd" d="M2126.32 2163.8L2139.34 2143.77L2137.65 2142.69L2124.32 2163.8H2126.32Z" fill="#3F3F46"/>
<path fill-rule="evenodd" clip-rule="evenodd" d="M2239.49 1779.13L2616.08 1432.52L2614.72 1431.05L2238.14 1777.66L2239.49 1779.13Z" fill="#3F3F46"/>
<path fill-rule="evenodd" clip-rule="evenodd" d="M2239.5 1779.13L2810.38 1612.84L2809.82 1610.92L2238.93 1777.2L2239.5 1779.13Z" fill="#3F3F46"/>
<path fill-rule="evenodd" clip-rule="evenodd" d="M2810.38 1612.84L3030.73 1368.41L3029.25 1367.07L2808.9 1611.5L2810.38 1612.84Z" fill="#3F3F46"/>
<path fill-rule="evenodd" clip-rule="evenodd" d="M3469.42 1911.36L3517.49 2163.8H3519.49L3471.38 1910.99L3469.42 1911.36Z" fill="#3F3F46"/>
<path fill-rule="evenodd" clip-rule="evenodd" d="M3469.42 1911.36L3196.99 1875.3L3196.73 1877.29L3469.15 1913.35L3469.42 1911.36Z" fill="#3F3F46"/>
<path fill-rule="evenodd" clip-rule="evenodd" d="M3317.17 2163.8L3196.99 1875.3L3195.14 1876.07L3315.18 2163.8H3317.17Z" fill="#3F3F46"/>
<path fill-rule="evenodd" clip-rule="evenodd" d="M3469.42 1911.36L3241.06 1528.69L3239.34 1529.72L3467.69 1912.38L3469.42 1911.36Z" fill="#3F3F46"/>
<path fill-rule="evenodd" clip-rule="evenodd" d="M2980.65 2037.59L3196.99 1875.3L3195.78 1873.69L2979.45 2035.98L2980.65 2037.59Z" fill="#3F3F46"/>
<path fill-rule="evenodd" clip-rule="evenodd" d="M2980.66 2037.58L3147.92 2163.8H3151.92L2981.86 2035.98L2980.66 2037.58Z" fill="#3F3F46"/>
<path fill-rule="evenodd" clip-rule="evenodd" d="M2980.66 2037.59L2992.67 2163.8H2994.68L2982.64 2037.39L2980.66 2037.59Z" fill="#3F3F46"/>
<path fill-rule="evenodd" clip-rule="evenodd" d="M2810.38 1612.84L3196.99 1875.3L3198.11 1873.64L2811.51 1611.18L2810.38 1612.84Z" fill="#3F3F46"/>
<path fill-rule="evenodd" clip-rule="evenodd" d="M2810.38 1612.84L2616.08 1432.52L2614.72 1433.99L2809.02 1614.31L2810.38 1612.84Z" fill="#3F3F46"/>
<path fill-rule="evenodd" clip-rule="evenodd" d="M2980.66 2037.59L2810.39 1612.84L2808.53 1613.58L2978.79 2038.33L2980.66 2037.59Z" fill="#3F3F46"/>
<path fill-rule="evenodd" clip-rule="evenodd" d="M2425.79 1506.65L2810.38 1612.84L2810.91 1610.91L2426.32 1504.72L2425.79 1506.65Z" fill="#3F3F46"/>
<path d="M112.184 286.522C112.184 295.374 119.358 302.55 128.209 302.55C137.059 302.55 144.233 295.374 144.233 286.522C144.233 277.669 137.059 270.494 128.209 270.494C119.358 270.494 112.184 277.669 112.184 286.522Z" fill="#3F3F46"/>
<path fill-rule="evenodd" clip-rule="evenodd" d="M128.207 271.495C136.504 271.495 143.231 278.223 143.231 286.522C143.231 294.821 136.504 301.548 128.207 301.548C119.91 301.548 113.183 294.821 113.183 286.522C113.183 278.223 119.91 271.495 128.207 271.495ZM145.233 286.522C145.233 277.117 137.61 269.492 128.207 269.492C118.803 269.492 111.18 277.117 111.18 286.522C111.18 295.927 118.803 303.551 128.207 303.551C137.61 303.551 145.233 295.927 145.233 286.522Z" fill="#3F3F46"/>
<path d="M308.492 677.204C308.492 686.057 315.667 693.232 324.517 693.232C333.368 693.232 340.542 686.057 340.542 677.204C340.542 668.353 333.368 661.176 324.517 661.176C315.667 661.176 308.492 668.353 308.492 677.204Z" fill="#3F3F46"/>
<path fill-rule="evenodd" clip-rule="evenodd" d="M324.515 662.178C332.812 662.178 339.539 668.905 339.539 677.204C339.539 685.503 332.812 692.231 324.515 692.231C316.218 692.231 309.492 685.503 309.492 677.204C309.492 668.905 316.218 662.178 324.515 662.178ZM341.541 677.204C341.541 667.799 333.919 660.174 324.515 660.174C315.112 660.174 307.488 667.799 307.488 677.204C307.488 686.609 315.112 694.234 324.515 694.234C333.919 694.234 341.541 686.609 341.541 677.204Z" fill="#3F3F46"/>
<path d="M106.172 765.359C106.172 774.21 113.347 781.387 122.197 781.387C131.047 781.387 138.222 774.21 138.222 765.359C138.222 756.506 131.047 749.33 122.197 749.33C113.347 749.33 106.172 756.506 106.172 765.359Z" fill="#3F3F46"/>
<path fill-rule="evenodd" clip-rule="evenodd" d="M122.202 750.332C130.5 750.332 137.226 757.06 137.226 765.359C137.226 773.657 130.5 780.384 122.202 780.384C113.905 780.384 107.179 773.657 107.179 765.359C107.179 757.06 113.905 750.332 122.202 750.332ZM139.229 765.359C139.229 755.953 131.605 748.329 122.202 748.329C112.799 748.329 105.176 755.953 105.176 765.359C105.176 774.763 112.799 782.388 122.202 782.388C131.605 782.388 139.229 774.763 139.229 765.359Z" fill="#3F3F46"/>
<path d="M68.1133 452.812C68.1133 461.665 75.288 468.84 84.1383 468.84C92.9887 468.84 100.163 461.665 100.163 452.812C100.163 443.961 92.9887 436.784 84.1383 436.784C75.288 436.784 68.1133 443.961 68.1133 452.812Z" fill="#3F3F46"/>
<path fill-rule="evenodd" clip-rule="evenodd" d="M84.1399 437.786C92.4371 437.786 99.1631 444.513 99.1631 452.812C99.1631 461.111 92.4371 467.839 84.1399 467.839C75.8426 467.839 69.1166 461.111 69.1166 452.812C69.1166 444.513 75.8426 437.786 84.1399 437.786ZM101.166 452.812C101.166 443.407 93.5432 435.782 84.1399 435.782C74.7364 435.782 67.1133 443.407 67.1133 452.812C67.1133 462.217 74.7364 469.842 84.1399 469.842C93.5432 469.842 101.166 462.217 101.166 452.812Z" fill="#3F3F46"/>
<path d="M348.555 875.551C348.555 888.828 359.316 899.593 372.592 899.593C385.867 899.593 396.629 888.828 396.629 875.551C396.629 862.272 385.867 851.509 372.592 851.509C359.316 851.509 348.555 862.272 348.555 875.551Z" fill="#3F3F46"/>
<path fill-rule="evenodd" clip-rule="evenodd" d="M372.59 852.51C385.312 852.51 395.626 862.826 395.626 875.551C395.626 888.276 385.312 898.591 372.59 898.591C359.867 898.591 349.554 888.276 349.554 875.551C349.554 862.826 359.867 852.51 372.59 852.51ZM397.629 875.551C397.629 861.72 386.419 850.507 372.59 850.507C358.762 850.507 347.551 861.72 347.551 875.551C347.551 889.382 358.762 900.595 372.59 900.595C386.419 900.595 397.629 889.382 397.629 875.551Z" fill="#3F3F46"/>
<path d="M719.129 843.495C719.129 852.347 726.304 859.523 735.154 859.523C744.004 859.523 751.18 852.347 751.18 843.495C751.18 834.643 744.004 827.467 735.154 827.467C726.304 827.467 719.129 834.643 719.129 843.495Z" fill="#3F3F46"/>
<path fill-rule="evenodd" clip-rule="evenodd" d="M735.151 828.468C743.449 828.468 750.175 835.196 750.175 843.495C750.175 851.794 743.449 858.521 735.151 858.521C726.854 858.521 720.128 851.794 720.128 843.495C720.128 835.196 726.854 828.468 735.151 828.468ZM752.178 843.495C752.178 834.09 744.555 826.465 735.151 826.465C725.748 826.465 718.125 834.09 718.125 843.495C718.125 852.9 725.748 860.524 735.151 860.524C744.555 860.524 752.178 852.9 752.178 843.495Z" fill="#3F3F46"/>
<path d="M150.246 1041.84C150.246 1050.69 157.42 1057.87 166.271 1057.87C175.121 1057.87 182.296 1050.69 182.296 1041.84C182.296 1032.99 175.121 1025.81 166.271 1025.81C157.42 1025.81 150.246 1032.99 150.246 1041.84Z" fill="#3F3F46"/>
<path fill-rule="evenodd" clip-rule="evenodd" d="M166.269 1026.82C174.566 1026.82 181.292 1033.55 181.292 1041.84C181.292 1050.14 174.566 1056.87 166.269 1056.87C157.971 1056.87 151.245 1050.14 151.245 1041.84C151.245 1033.55 157.971 1026.82 166.269 1026.82ZM183.295 1041.84C183.295 1032.43 175.673 1024.81 166.269 1024.81C156.865 1024.81 149.242 1032.43 149.242 1041.84C149.242 1051.24 156.865 1058.87 166.269 1058.87C175.673 1058.87 183.295 1051.24 183.295 1041.84Z" fill="#3F3F46"/>
<path d="M172.277 1536.7C172.277 1545.56 179.453 1552.73 188.302 1552.73C197.153 1552.73 204.327 1545.56 204.327 1536.7C204.327 1527.86 197.153 1520.67 188.302 1520.67C179.453 1520.67 172.277 1527.86 172.277 1536.7Z" fill="#3F3F46"/>
<path fill-rule="evenodd" clip-rule="evenodd" d="M188.299 1521.68C196.597 1521.68 203.323 1528.41 203.323 1536.7C203.323 1545 196.597 1551.73 188.299 1551.73C180.003 1551.73 173.277 1545 173.277 1536.7C173.277 1528.41 180.003 1521.68 188.299 1521.68ZM205.327 1536.7C205.327 1527.31 197.704 1519.67 188.299 1519.67C178.896 1519.67 171.273 1527.31 171.273 1536.7C171.273 1546.11 178.896 1553.74 188.299 1553.74C197.704 1553.74 205.327 1546.11 205.327 1536.7Z" fill="#3F3F46"/>
<path d="M532.84 1087.93C532.84 1096.77 540.015 1103.95 548.865 1103.95C557.715 1103.95 564.89 1096.77 564.89 1087.93C564.89 1079.07 557.715 1071.9 548.865 1071.9C540.015 1071.9 532.84 1079.07 532.84 1087.93Z" fill="#3F3F46"/>
<path fill-rule="evenodd" clip-rule="evenodd" d="M548.862 1072.9C557.16 1072.9 563.886 1079.62 563.886 1087.93C563.886 1096.22 557.16 1102.94 548.862 1102.94C540.565 1102.94 533.839 1096.22 533.839 1087.93C533.839 1079.62 540.565 1072.9 548.862 1072.9ZM565.889 1087.93C565.889 1078.52 558.266 1070.89 548.862 1070.89C539.459 1070.89 531.836 1078.52 531.836 1087.93C531.836 1097.33 539.459 1104.95 548.862 1104.95C558.266 1104.95 565.889 1097.33 565.889 1087.93Z" fill="#3F3F46"/>
<path d="M741.164 1338.36C741.164 1347.21 748.338 1354.39 757.189 1354.39C766.04 1354.39 773.214 1347.21 773.214 1338.36C773.214 1329.51 766.04 1322.33 757.189 1322.33C748.338 1322.33 741.164 1329.51 741.164 1338.36Z" fill="#3F3F46"/>
<path fill-rule="evenodd" clip-rule="evenodd" d="M757.19 1323.33C765.488 1323.33 772.214 1330.06 772.214 1338.36C772.214 1346.66 765.488 1353.38 757.19 1353.38C748.893 1353.38 742.166 1346.66 742.166 1338.36C742.166 1330.06 748.893 1323.33 757.19 1323.33ZM774.217 1338.36C774.217 1328.96 766.593 1321.33 757.19 1321.33C747.787 1321.33 740.164 1328.96 740.164 1338.36C740.164 1347.77 747.787 1355.39 757.19 1355.39C766.593 1355.39 774.217 1347.77 774.217 1338.36Z" fill="#3F3F46"/>
<path d="M538.852 1504.65C538.852 1513.5 546.026 1520.67 554.876 1520.67C563.727 1520.67 570.901 1513.5 570.901 1504.65C570.901 1495.8 563.727 1488.62 554.876 1488.62C546.026 1488.62 538.852 1495.8 538.852 1504.65Z" fill="#3F3F46"/>
<path fill-rule="evenodd" clip-rule="evenodd" d="M554.874 1489.63C563.171 1489.63 569.898 1496.35 569.898 1504.65C569.898 1512.95 563.171 1519.67 554.874 1519.67C546.577 1519.67 539.85 1512.95 539.85 1504.65C539.85 1496.35 546.577 1489.63 554.874 1489.63ZM571.901 1504.65C571.901 1495.25 564.277 1487.62 554.874 1487.62C545.47 1487.62 537.848 1495.25 537.848 1504.65C537.848 1514.05 545.47 1521.68 554.874 1521.68C564.277 1521.68 571.901 1514.05 571.901 1504.65Z" fill="#3F3F46"/>
<path d="M586.922 1705C586.922 1713.86 594.097 1721.03 602.947 1721.03C611.797 1721.03 618.972 1713.86 618.972 1705C618.972 1696.15 611.797 1688.97 602.947 1688.97C594.097 1688.97 586.922 1696.15 586.922 1705Z" fill="#3F3F46"/>
<path fill-rule="evenodd" clip-rule="evenodd" d="M602.948 1689.97C611.246 1689.97 617.972 1696.7 617.972 1705C617.972 1713.29 611.246 1720.03 602.948 1720.03C594.651 1720.03 587.924 1713.29 587.924 1705C587.924 1696.7 594.651 1689.97 602.948 1689.97ZM619.975 1705C619.975 1695.59 612.351 1687.97 602.948 1687.97C593.545 1687.97 585.922 1695.59 585.922 1705C585.922 1714.41 593.545 1722.03 602.948 1722.03C612.351 1722.03 619.975 1714.41 619.975 1705Z" fill="#3F3F46"/>
<path d="M787.238 1612.84C787.238 1621.69 794.414 1628.87 803.263 1628.87C812.114 1628.87 819.288 1621.69 819.288 1612.84C819.288 1603.98 812.114 1596.81 803.263 1596.81C794.414 1596.81 787.238 1603.98 787.238 1612.84Z" fill="#3F3F46"/>
<path fill-rule="evenodd" clip-rule="evenodd" d="M803.26 1597.82C811.558 1597.82 818.284 1604.54 818.284 1612.84C818.284 1621.14 811.558 1627.87 803.26 1627.87C794.964 1627.87 788.238 1621.14 788.238 1612.84C788.238 1604.54 794.964 1597.82 803.26 1597.82ZM820.287 1612.84C820.287 1603.43 812.665 1595.81 803.26 1595.81C793.857 1595.81 786.234 1603.43 786.234 1612.84C786.234 1622.24 793.857 1629.86 803.26 1629.86C812.665 1629.86 820.287 1622.24 820.287 1612.84Z" fill="#3F3F46"/>
<path d="M1051.64 1512.66C1051.64 1519.3 1057.03 1524.69 1063.66 1524.69C1070.3 1524.69 1075.68 1519.3 1075.68 1512.66C1075.68 1506.03 1070.3 1500.64 1063.66 1500.64C1057.03 1500.64 1051.64 1506.03 1051.64 1512.66Z" fill="#3F3F46"/>
<path fill-rule="evenodd" clip-rule="evenodd" d="M1063.67 1501.65C1069.75 1501.65 1074.69 1506.58 1074.69 1512.66C1074.69 1518.75 1069.75 1523.68 1063.67 1523.68C1057.59 1523.68 1052.65 1518.75 1052.65 1512.66C1052.65 1506.58 1057.59 1501.65 1063.67 1501.65ZM1076.69 1512.66C1076.69 1505.47 1070.86 1499.64 1063.67 1499.64C1056.47 1499.64 1050.64 1505.47 1050.64 1512.66C1050.64 1519.85 1056.47 1525.69 1063.67 1525.69C1070.86 1525.69 1076.69 1519.85 1076.69 1512.66Z" fill="#3F3F46"/>
<path d="M965.516 1546.73C965.516 1553.37 970.896 1558.74 977.534 1558.74C984.172 1558.74 989.552 1553.37 989.552 1546.73C989.552 1540.09 984.172 1534.7 977.534 1534.7C970.896 1534.7 965.516 1540.09 965.516 1546.73Z" fill="#3F3F46"/>
<path fill-rule="evenodd" clip-rule="evenodd" d="M977.532 1535.7C983.616 1535.7 988.55 1540.64 988.55 1546.73C988.55 1552.8 983.616 1557.74 977.532 1557.74C971.447 1557.74 966.515 1552.8 966.515 1546.73C966.515 1540.64 971.447 1535.7 977.532 1535.7ZM990.553 1546.73C990.553 1539.53 984.723 1533.71 977.532 1533.71C970.341 1533.71 964.512 1539.53 964.512 1546.73C964.512 1553.92 970.341 1559.75 977.532 1559.75C984.723 1559.75 990.553 1553.92 990.553 1546.73Z" fill="#3F3F46"/>
<path d="M827.301 1929.39C827.301 1938.25 834.475 1945.42 843.326 1945.42C852.176 1945.42 859.351 1938.25 859.351 1929.39C859.351 1920.54 852.176 1913.37 843.326 1913.37C834.475 1913.37 827.301 1920.54 827.301 1929.39Z" fill="#3F3F46"/>
<path fill-rule="evenodd" clip-rule="evenodd" d="M843.324 1914.36C851.621 1914.36 858.348 1921.09 858.348 1929.39C858.348 1937.69 851.621 1944.41 843.324 1944.41C835.027 1944.41 828.3 1937.69 828.3 1929.39C828.3 1921.09 835.027 1914.36 843.324 1914.36ZM860.35 1929.39C860.35 1919.99 852.727 1912.36 843.324 1912.36C833.921 1912.36 826.297 1919.99 826.297 1929.39C826.297 1938.8 833.921 1946.42 843.324 1946.42C852.727 1946.42 860.35 1938.8 860.35 1929.39Z" fill="#3F3F46"/>
<path d="M915.434 2005.53C915.434 2012.17 920.815 2017.54 927.453 2017.54C934.091 2017.54 939.471 2012.17 939.471 2005.53C939.471 1998.88 934.091 1993.51 927.453 1993.51C920.815 1993.51 915.434 1998.88 915.434 2005.53Z" fill="#3F3F46"/>
<path fill-rule="evenodd" clip-rule="evenodd" d="M927.454 1994.5C933.538 1994.5 938.471 1999.44 938.471 2005.53C938.471 2011.61 933.538 2016.54 927.454 2016.54C921.369 2016.54 916.437 2011.61 916.437 2005.53C916.437 1999.44 921.369 1994.5 927.454 1994.5ZM940.474 2005.53C940.474 1998.33 934.645 1992.5 927.454 1992.5C920.263 1992.5 914.434 1998.33 914.434 2005.53C914.434 2012.72 920.263 2018.55 927.454 2018.55C934.645 2018.55 940.474 2012.72 940.474 2005.53Z" fill="#3F3F46"/>
<path d="M783.227 2091.67C783.227 2100.53 790.401 2107.7 799.251 2107.7C808.101 2107.7 815.275 2100.53 815.275 2091.67C815.275 2082.83 808.101 2075.64 799.251 2075.64C790.401 2075.64 783.227 2082.83 783.227 2091.67Z" fill="#3F3F46"/>
<path fill-rule="evenodd" clip-rule="evenodd" d="M799.258 2076.65C807.554 2076.65 814.28 2083.38 814.28 2091.67C814.28 2099.97 807.554 2106.7 799.258 2106.7C790.96 2106.7 784.234 2099.97 784.234 2091.67C784.234 2083.38 790.96 2076.65 799.258 2076.65ZM816.284 2091.67C816.284 2082.27 808.661 2074.65 799.258 2074.65C789.853 2074.65 782.23 2082.27 782.23 2091.67C782.23 2101.08 789.853 2108.71 799.258 2108.71C808.661 2108.71 816.284 2101.08 816.284 2091.67Z" fill="#3F3F46"/>
<path d="M1091.71 2161.8C1091.71 2168.43 1097.08 2173.82 1103.72 2173.82C1110.37 2173.82 1115.74 2168.43 1115.74 2161.8C1115.74 2155.16 1110.37 2149.77 1103.72 2149.77C1097.08 2149.77 1091.71 2155.16 1091.71 2161.8Z" fill="#3F3F46"/>
<path fill-rule="evenodd" clip-rule="evenodd" d="M1103.73 2150.78C1109.82 2150.78 1114.74 2155.71 1114.74 2161.8C1114.74 2167.88 1109.82 2172.82 1103.73 2172.82C1097.65 2172.82 1092.71 2167.88 1092.71 2161.8C1092.71 2155.71 1097.65 2150.78 1103.73 2150.78ZM1116.75 2161.8C1116.75 2154.61 1110.92 2148.77 1103.73 2148.77C1096.54 2148.77 1090.71 2154.61 1090.71 2161.8C1090.71 2168.99 1096.54 2174.82 1103.73 2174.82C1110.92 2174.82 1116.75 2168.99 1116.75 2161.8Z" fill="#3F3F46"/>
<path d="M1167.83 1460.58C1167.83 1473.85 1178.59 1484.61 1191.86 1484.61C1205.14 1484.61 1215.91 1473.85 1215.91 1460.58C1215.91 1447.3 1205.14 1436.53 1191.86 1436.53C1178.59 1436.53 1167.83 1447.3 1167.83 1460.58Z" fill="#3F3F46"/>
<path fill-rule="evenodd" clip-rule="evenodd" d="M1191.86 1437.54C1204.59 1437.54 1214.9 1447.85 1214.9 1460.58C1214.9 1473.3 1204.59 1483.61 1191.86 1483.61C1179.14 1483.61 1168.83 1473.3 1168.83 1460.58C1168.83 1447.85 1179.14 1437.54 1191.86 1437.54ZM1216.9 1460.58C1216.9 1446.74 1205.7 1435.53 1191.86 1435.53C1178.04 1435.53 1166.82 1446.74 1166.82 1460.58C1166.82 1474.4 1178.04 1485.62 1191.86 1485.62C1205.7 1485.62 1216.9 1474.4 1216.9 1460.58Z" fill="#3F3F46"/>
<path d="M1177.85 2077.65C1177.85 2086.51 1185.02 2093.68 1193.87 2093.68C1202.72 2093.68 1209.9 2086.51 1209.9 2077.65C1209.9 2068.8 1202.72 2061.62 1193.87 2061.62C1185.02 2061.62 1177.85 2068.8 1177.85 2077.65Z" fill="#3F3F46"/>
<path fill-rule="evenodd" clip-rule="evenodd" d="M1193.87 2062.62C1202.16 2062.62 1208.89 2069.35 1208.89 2077.65C1208.89 2085.95 1202.16 2092.68 1193.87 2092.68C1185.57 2092.68 1178.84 2085.95 1178.84 2077.65C1178.84 2069.35 1185.57 2062.62 1193.87 2062.62ZM1210.89 2077.65C1210.89 2068.25 1203.27 2060.62 1193.87 2060.62C1184.47 2060.62 1176.84 2068.25 1176.84 2077.65C1176.84 2087.06 1184.47 2094.68 1193.87 2094.68C1203.27 2094.68 1210.89 2087.06 1210.89 2077.65Z" fill="#3F3F46"/>
<path d="M1318.07 1779.13C1318.07 1787.98 1325.24 1795.16 1334.09 1795.16C1342.93 1795.16 1350.12 1787.98 1350.12 1779.13C1350.12 1770.27 1342.93 1763.1 1334.09 1763.1C1325.24 1763.1 1318.07 1770.27 1318.07 1779.13Z" fill="#3F3F46"/>
<path fill-rule="evenodd" clip-rule="evenodd" d="M1334.09 1764.1C1342.38 1764.1 1349.11 1770.83 1349.11 1779.13C1349.11 1787.43 1342.38 1794.16 1334.09 1794.16C1325.79 1794.16 1319.07 1787.43 1319.07 1779.13C1319.07 1770.83 1325.79 1764.1 1334.09 1764.1ZM1351.12 1779.13C1351.12 1769.72 1343.49 1762.1 1334.09 1762.1C1324.69 1762.1 1317.06 1769.72 1317.06 1779.13C1317.06 1788.54 1324.69 1796.16 1334.09 1796.16C1343.49 1796.16 1351.12 1788.54 1351.12 1779.13Z" fill="#3F3F46"/>
<path d="M1428.24 1530.7C1428.24 1541.76 1437.21 1550.73 1448.26 1550.73C1459.33 1550.73 1468.29 1541.76 1468.29 1530.7C1468.29 1519.63 1459.33 1510.66 1448.26 1510.66C1437.21 1510.66 1428.24 1519.63 1428.24 1530.7Z" fill="#3F3F46"/>
<path fill-rule="evenodd" clip-rule="evenodd" d="M1448.26 1511.67C1458.77 1511.67 1467.29 1520.18 1467.29 1530.7C1467.29 1541.21 1458.77 1549.73 1448.26 1549.73C1437.76 1549.73 1429.23 1541.21 1429.23 1530.7C1429.23 1520.18 1437.76 1511.67 1448.26 1511.67ZM1469.3 1530.7C1469.3 1519.08 1459.88 1509.66 1448.26 1509.66C1436.64 1509.66 1427.23 1519.08 1427.23 1530.7C1427.23 1542.31 1436.64 1551.73 1448.26 1551.73C1459.88 1551.73 1469.3 1542.31 1469.3 1530.7Z" fill="#3F3F46"/>
<path d="M1374.15 1642.9C1374.15 1653.96 1383.12 1662.93 1394.18 1662.93C1405.25 1662.93 1414.22 1653.96 1414.22 1642.9C1414.22 1631.83 1405.25 1622.85 1394.18 1622.85C1383.12 1622.85 1374.15 1631.83 1374.15 1642.9Z" fill="#3F3F46"/>
<path fill-rule="evenodd" clip-rule="evenodd" d="M1394.18 1623.86C1404.7 1623.86 1413.21 1632.38 1413.21 1642.9C1413.21 1653.4 1404.7 1661.92 1394.18 1661.92C1383.67 1661.92 1375.15 1653.4 1375.15 1642.9C1375.15 1632.38 1383.67 1623.86 1394.18 1623.86ZM1415.22 1642.9C1415.22 1631.27 1405.8 1621.85 1394.18 1621.85C1382.57 1621.85 1373.15 1631.27 1373.15 1642.9C1373.15 1654.51 1382.57 1663.93 1394.18 1663.93C1405.8 1663.93 1415.22 1654.51 1415.22 1642.9Z" fill="#3F3F46"/>
<path d="M1622.54 1680.95C1622.54 1687.59 1627.92 1692.98 1634.55 1692.98C1641.19 1692.98 1646.58 1687.59 1646.58 1680.95C1646.58 1674.32 1641.19 1668.94 1634.55 1668.94C1627.92 1668.94 1622.54 1674.32 1622.54 1680.95Z" fill="#3F3F46"/>
<path fill-rule="evenodd" clip-rule="evenodd" d="M1634.55 1669.94C1640.64 1669.94 1645.58 1674.88 1645.58 1680.95C1645.58 1687.04 1640.64 1691.98 1634.55 1691.98C1628.47 1691.98 1623.54 1687.04 1623.54 1680.95C1623.54 1674.88 1628.47 1669.94 1634.55 1669.94ZM1647.57 1680.95C1647.57 1673.76 1641.74 1667.93 1634.55 1667.93C1627.37 1667.93 1621.53 1673.76 1621.53 1680.95C1621.53 1688.15 1627.37 1693.98 1634.55 1693.98C1641.74 1693.98 1647.57 1688.15 1647.57 1680.95Z" fill="#3F3F46"/>
<path d="M1772.77 2163.8C1772.77 2172.66 1779.95 2179.83 1788.79 2179.83C1797.65 2179.83 1804.82 2172.66 1804.82 2163.8C1804.82 2154.95 1797.65 2147.78 1788.79 2147.78C1779.95 2147.78 1772.77 2154.95 1772.77 2163.8Z" fill="#3F3F46"/>
<path fill-rule="evenodd" clip-rule="evenodd" d="M1788.79 2148.77C1797.1 2148.77 1803.82 2155.5 1803.82 2163.8C1803.82 2172.1 1797.1 2178.82 1788.79 2178.82C1780.5 2178.82 1773.78 2172.1 1773.78 2163.8C1773.78 2155.5 1780.5 2148.77 1788.79 2148.77ZM1805.83 2163.8C1805.83 2154.4 1798.2 2146.78 1788.79 2146.78C1779.39 2146.78 1771.77 2154.4 1771.77 2163.8C1771.77 2173.21 1779.39 2180.83 1788.79 2180.83C1798.2 2180.83 1805.83 2173.21 1805.83 2163.8Z" fill="#3F3F46"/>
<path d="M1712.68 1899.34C1712.68 1908.19 1719.85 1915.36 1728.71 1915.36C1737.55 1915.36 1744.73 1908.19 1744.73 1899.34C1744.73 1890.49 1737.55 1883.31 1728.71 1883.31C1719.85 1883.31 1712.68 1890.49 1712.68 1899.34Z" fill="#3F3F46"/>
<path fill-rule="evenodd" clip-rule="evenodd" d="M1728.71 1884.32C1737 1884.32 1743.72 1891.04 1743.72 1899.34C1743.72 1907.64 1737 1914.36 1728.71 1914.36C1720.41 1914.36 1713.68 1907.64 1713.68 1899.34C1713.68 1891.04 1720.41 1884.32 1728.71 1884.32ZM1745.73 1899.34C1745.73 1889.94 1738.1 1882.31 1728.71 1882.31C1719.3 1882.31 1711.67 1889.94 1711.67 1899.34C1711.67 1908.74 1719.3 1916.37 1728.71 1916.37C1738.1 1916.37 1745.73 1908.74 1745.73 1899.34Z" fill="#3F3F46"/>
<path d="M1730.7 1694.98C1730.7 1703.84 1737.88 1711.01 1746.73 1711.01C1755.58 1711.01 1762.75 1703.84 1762.75 1694.98C1762.75 1686.13 1755.58 1678.96 1746.73 1678.96C1737.88 1678.96 1730.7 1686.13 1730.7 1694.98Z" fill="#3F3F46"/>
<path fill-rule="evenodd" clip-rule="evenodd" d="M1746.73 1679.96C1755.03 1679.96 1761.76 1686.68 1761.76 1694.98C1761.76 1703.28 1755.03 1710 1746.73 1710C1738.43 1710 1731.7 1703.28 1731.7 1694.98C1731.7 1686.68 1738.43 1679.96 1746.73 1679.96ZM1763.75 1694.98C1763.75 1685.58 1756.13 1677.95 1746.73 1677.95C1737.33 1677.95 1729.71 1685.58 1729.71 1694.98C1729.71 1704.39 1737.33 1712.01 1746.73 1712.01C1756.13 1712.01 1763.75 1704.39 1763.75 1694.98Z" fill="#3F3F46"/>
<path d="M1744.72 1568.76C1744.72 1575.41 1750.11 1580.78 1756.74 1580.78C1763.38 1580.78 1768.76 1575.41 1768.76 1568.76C1768.76 1562.12 1763.38 1556.74 1756.74 1556.74C1750.11 1556.74 1744.72 1562.12 1744.72 1568.76Z" fill="#3F3F46"/>
<path fill-rule="evenodd" clip-rule="evenodd" d="M1756.74 1557.74C1762.83 1557.74 1767.76 1562.68 1767.76 1568.76C1767.76 1574.84 1762.83 1579.78 1756.74 1579.78C1750.66 1579.78 1745.73 1574.84 1745.73 1568.76C1745.73 1562.68 1750.66 1557.74 1756.74 1557.74ZM1769.76 1568.76C1769.76 1561.57 1763.93 1555.74 1756.74 1555.74C1749.56 1555.74 1743.72 1561.57 1743.72 1568.76C1743.72 1575.96 1749.56 1581.79 1756.74 1581.79C1763.93 1581.79 1769.76 1575.96 1769.76 1568.76Z" fill="#3F3F46"/>
<path d="M2021.16 2063.63C2021.16 2072.47 2028.33 2079.66 2037.19 2079.66C2046.03 2079.66 2053.21 2072.47 2053.21 2063.63C2053.21 2054.78 2046.03 2047.6 2037.19 2047.6C2028.33 2047.6 2021.16 2054.78 2021.16 2063.63Z" fill="#3F3F46"/>
<path fill-rule="evenodd" clip-rule="evenodd" d="M2037.19 2048.6C2045.48 2048.6 2052.2 2055.33 2052.2 2063.63C2052.2 2071.92 2045.48 2078.65 2037.19 2078.65C2028.89 2078.65 2022.16 2071.92 2022.16 2063.63C2022.16 2055.33 2028.89 2048.6 2037.19 2048.6ZM2054.21 2063.63C2054.21 2054.22 2046.58 2046.59 2037.19 2046.59C2027.78 2046.59 2020.15 2054.22 2020.15 2063.63C2020.15 2073.04 2027.78 2080.66 2037.19 2080.66C2046.58 2080.66 2054.21 2073.04 2054.21 2063.63Z" fill="#3F3F46"/>
<path d="M2123.31 2143.77C2123.31 2152.62 2130.48 2159.8 2139.34 2159.8C2148.19 2159.8 2155.36 2152.62 2155.36 2143.77C2155.36 2134.92 2148.19 2127.74 2139.34 2127.74C2130.48 2127.74 2123.31 2134.92 2123.31 2143.77Z" fill="#3F3F46"/>
<path fill-rule="evenodd" clip-rule="evenodd" d="M2139.34 2128.74C2147.64 2128.74 2154.36 2135.47 2154.36 2143.77C2154.36 2152.06 2147.64 2158.79 2139.34 2158.79C2131.05 2158.79 2124.31 2152.06 2124.31 2143.77C2124.31 2135.47 2131.05 2128.74 2139.34 2128.74ZM2156.36 2143.77C2156.36 2134.36 2148.74 2126.73 2139.34 2126.73C2129.93 2126.73 2122.31 2134.36 2122.31 2143.77C2122.31 2153.18 2129.93 2160.8 2139.34 2160.8C2148.74 2160.8 2156.36 2153.18 2156.36 2143.77Z" fill="#3F3F46"/>
<path d="M2053.2 1753.09C2053.2 1761.94 2060.38 1769.11 2069.23 1769.11C2078.08 1769.11 2085.25 1761.94 2085.25 1753.09C2085.25 1744.23 2078.08 1737.06 2069.23 1737.06C2060.38 1737.06 2053.2 1744.23 2053.2 1753.09Z" fill="#3F3F46"/>
<path fill-rule="evenodd" clip-rule="evenodd" d="M2069.23 1738.06C2077.53 1738.06 2084.25 1744.78 2084.25 1753.09C2084.25 1761.38 2077.53 1768.11 2069.23 1768.11C2060.94 1768.11 2054.21 1761.38 2054.21 1753.09C2054.21 1744.78 2060.94 1738.06 2069.23 1738.06ZM2086.26 1753.09C2086.26 1743.68 2078.63 1736.06 2069.23 1736.06C2059.82 1736.06 2052.2 1743.68 2052.2 1753.09C2052.2 1762.49 2059.82 1770.11 2069.23 1770.11C2078.63 1770.11 2086.26 1762.49 2086.26 1753.09Z" fill="#3F3F46"/>
<path d="M2163.38 1871.29C2163.38 1877.93 2168.76 1883.31 2175.4 1883.31C2182.04 1883.31 2187.41 1877.93 2187.41 1871.29C2187.41 1864.66 2182.04 1859.27 2175.4 1859.27C2168.76 1859.27 2163.38 1864.66 2163.38 1871.29Z" fill="#3F3F46"/>
<path fill-rule="evenodd" clip-rule="evenodd" d="M2175.4 1860.27C2181.48 1860.27 2186.41 1865.21 2186.41 1871.29C2186.41 1877.38 2181.48 1882.31 2175.4 1882.31C2169.32 1882.31 2164.38 1877.38 2164.38 1871.29C2164.38 1865.21 2169.32 1860.27 2175.4 1860.27ZM2188.42 1871.29C2188.42 1864.09 2182.59 1858.27 2175.4 1858.27C2168.2 1858.27 2162.38 1864.09 2162.38 1871.29C2162.38 1878.48 2168.2 1884.32 2175.4 1884.32C2182.59 1884.32 2188.42 1878.48 2188.42 1871.29Z" fill="#3F3F46"/>
<path d="M2223.48 1779.13C2223.48 1787.98 2230.65 1795.16 2239.5 1795.16C2248.34 1795.16 2255.53 1787.98 2255.53 1779.13C2255.53 1770.27 2248.34 1763.1 2239.5 1763.1C2230.65 1763.1 2223.48 1770.27 2223.48 1779.13Z" fill="#3F3F46"/>
<path fill-rule="evenodd" clip-rule="evenodd" d="M2239.5 1764.1C2247.79 1764.1 2254.52 1770.83 2254.52 1779.13C2254.52 1787.43 2247.79 1794.16 2239.5 1794.16C2231.2 1794.16 2224.47 1787.43 2224.47 1779.13C2224.47 1770.83 2231.2 1764.1 2239.5 1764.1ZM2256.52 1779.13C2256.52 1769.72 2248.9 1762.1 2239.5 1762.1C2230.1 1762.1 2222.47 1769.72 2222.47 1779.13C2222.47 1788.54 2230.1 1796.16 2239.5 1796.16C2248.9 1796.16 2256.52 1788.54 2256.52 1779.13Z" fill="#3F3F46"/>
<path d="M2409.77 1506.65C2409.77 1515.51 2416.94 1522.68 2425.79 1522.68C2434.63 1522.68 2441.82 1515.51 2441.82 1506.65C2441.82 1497.8 2434.63 1490.62 2425.79 1490.62C2416.94 1490.62 2409.77 1497.8 2409.77 1506.65Z" fill="#3F3F46"/>
<path fill-rule="evenodd" clip-rule="evenodd" d="M2425.78 1491.62C2434.08 1491.62 2440.81 1498.36 2440.81 1506.65C2440.81 1514.96 2434.08 1521.68 2425.78 1521.68C2417.49 1521.68 2410.76 1514.96 2410.76 1506.65C2410.76 1498.36 2417.49 1491.62 2425.78 1491.62ZM2442.81 1506.65C2442.81 1497.25 2435.19 1489.63 2425.78 1489.63C2416.39 1489.63 2408.76 1497.25 2408.76 1506.65C2408.76 1516.06 2416.39 1523.68 2425.78 1523.68C2435.19 1523.68 2442.81 1516.06 2442.81 1506.65Z" fill="#3F3F46"/>
<path d="M2519.93 1073.89C2519.93 1082.75 2527.11 1089.92 2535.96 1089.92C2544.8 1089.92 2551.98 1082.75 2551.98 1073.89C2551.98 1065.05 2544.8 1057.87 2535.96 1057.87C2527.11 1057.87 2519.93 1065.05 2519.93 1073.89Z" fill="#3F3F46"/>
<path fill-rule="evenodd" clip-rule="evenodd" d="M2535.96 1058.87C2544.26 1058.87 2550.99 1065.6 2550.99 1073.89C2550.99 1082.2 2544.26 1088.92 2535.96 1088.92C2527.66 1088.92 2520.93 1082.2 2520.93 1073.89C2520.93 1065.6 2527.66 1058.87 2535.96 1058.87ZM2552.98 1073.89C2552.98 1064.49 2545.36 1056.87 2535.96 1056.87C2526.56 1056.87 2518.94 1064.49 2518.94 1073.89C2518.94 1083.3 2526.56 1090.93 2535.96 1090.93C2545.36 1090.93 2552.98 1083.3 2552.98 1073.89Z" fill="#3F3F46"/>
<path d="M2600.06 1432.52C2600.06 1441.38 2607.23 1448.55 2616.08 1448.55C2624.94 1448.55 2632.11 1441.38 2632.11 1432.52C2632.11 1423.67 2624.94 1416.5 2616.08 1416.5C2607.23 1416.5 2600.06 1423.67 2600.06 1432.52Z" fill="#3F3F46"/>
<path fill-rule="evenodd" clip-rule="evenodd" d="M2616.08 1417.49C2624.39 1417.49 2631.11 1424.22 2631.11 1432.52C2631.11 1440.83 2624.39 1447.55 2616.08 1447.55C2607.79 1447.55 2601.06 1440.83 2601.06 1432.52C2601.06 1424.22 2607.79 1417.49 2616.08 1417.49ZM2633.11 1432.52C2633.11 1423.12 2625.49 1415.5 2616.08 1415.5C2606.68 1415.5 2599.06 1423.12 2599.06 1432.52C2599.06 1441.93 2606.68 1449.55 2616.08 1449.55C2625.49 1449.55 2633.11 1441.93 2633.11 1432.52Z" fill="#3F3F46"/>
<path d="M2794.36 1612.84C2794.36 1621.69 2801.54 1628.87 2810.38 1628.87C2819.23 1628.87 2826.41 1621.69 2826.41 1612.84C2826.41 1603.98 2819.23 1596.81 2810.38 1596.81C2801.54 1596.81 2794.36 1603.98 2794.36 1612.84Z" fill="#3F3F46"/>
<path fill-rule="evenodd" clip-rule="evenodd" d="M2810.38 1597.82C2818.68 1597.82 2825.41 1604.54 2825.41 1612.84C2825.41 1621.14 2818.68 1627.87 2810.38 1627.87C2802.09 1627.87 2795.37 1621.14 2795.37 1612.84C2795.37 1604.54 2802.09 1597.82 2810.38 1597.82ZM2827.42 1612.84C2827.42 1603.43 2819.79 1595.81 2810.38 1595.81C2800.98 1595.81 2793.36 1603.43 2793.36 1612.84C2793.36 1622.24 2800.98 1629.86 2810.38 1629.86C2819.79 1629.86 2827.42 1622.24 2827.42 1612.84Z" fill="#3F3F46"/>
<path d="M3014.7 1368.41C3014.7 1377.27 3021.88 1384.44 3030.73 1384.44C3039.58 1384.44 3046.75 1377.27 3046.75 1368.41C3046.75 1359.56 3039.58 1352.38 3030.73 1352.38C3021.88 1352.38 3014.7 1359.56 3014.7 1368.41Z" fill="#3F3F46"/>
<path fill-rule="evenodd" clip-rule="evenodd" d="M3030.73 1353.38C3039.03 1353.38 3045.76 1360.11 3045.76 1368.41C3045.76 1376.71 3039.03 1383.44 3030.73 1383.44C3022.43 1383.44 3015.7 1376.71 3015.7 1368.41C3015.7 1360.11 3022.43 1353.38 3030.73 1353.38ZM3047.75 1368.41C3047.75 1359.01 3040.13 1351.38 3030.73 1351.38C3021.32 1351.38 3013.71 1359.01 3013.71 1368.41C3013.71 1377.82 3021.32 1385.44 3030.73 1385.44C3040.13 1385.44 3047.75 1377.82 3047.75 1368.41Z" fill="#3F3F46"/>
<path d="M3190.98 1162.05C3190.98 1175.33 3201.74 1186.09 3215.02 1186.09C3228.3 1186.09 3239.05 1175.33 3239.05 1162.05C3239.05 1148.78 3228.3 1138.01 3215.02 1138.01C3201.74 1138.01 3190.98 1148.78 3190.98 1162.05Z" fill="#3F3F46"/>
<path fill-rule="evenodd" clip-rule="evenodd" d="M3215.01 1139.02C3227.73 1139.02 3238.06 1149.33 3238.06 1162.05C3238.06 1174.78 3227.73 1185.09 3215.01 1185.09C3202.29 1185.09 3191.98 1174.78 3191.98 1162.05C3191.98 1149.33 3202.29 1139.02 3215.01 1139.02ZM3240.05 1162.05C3240.05 1148.22 3228.85 1137.01 3215.01 1137.01C3201.19 1137.01 3189.98 1148.22 3189.98 1162.05C3189.98 1175.88 3201.19 1187.1 3215.01 1187.1C3228.85 1187.1 3240.05 1175.88 3240.05 1162.05Z" fill="#3F3F46"/>
<path d="M2956.61 2037.59C2956.61 2050.86 2967.37 2061.62 2980.65 2061.62C2993.93 2061.62 3004.69 2050.86 3004.69 2037.59C3004.69 2024.3 2993.93 2013.54 2980.65 2013.54C2967.37 2013.54 2956.61 2024.3 2956.61 2037.59Z" fill="#3F3F46"/>
<path fill-rule="evenodd" clip-rule="evenodd" d="M2980.66 2014.54C2993.38 2014.54 3003.69 2024.86 3003.69 2037.58C3003.69 2050.3 2993.38 2060.62 2980.66 2060.62C2967.93 2060.62 2957.61 2050.3 2957.61 2037.58C2957.61 2024.86 2967.93 2014.54 2980.66 2014.54ZM3005.69 2037.58C3005.69 2023.75 2994.48 2012.54 2980.66 2012.54C2966.82 2012.54 2955.62 2023.75 2955.62 2037.58C2955.62 2051.41 2966.82 2062.62 2980.66 2062.62C2994.48 2062.62 3005.69 2051.41 3005.69 2037.58Z" fill="#3F3F46"/>
<path d="M3180.96 1875.3C3180.96 1884.15 3188.14 1891.33 3196.99 1891.33C3205.84 1891.33 3213.01 1884.15 3213.01 1875.3C3213.01 1866.44 3205.84 1859.27 3196.99 1859.27C3188.14 1859.27 3180.96 1866.44 3180.96 1875.3Z" fill="#3F3F46"/>
<path fill-rule="evenodd" clip-rule="evenodd" d="M3196.99 1860.27C3205.28 1860.27 3212.01 1867 3212.01 1875.3C3212.01 1883.6 3205.28 1890.33 3196.99 1890.33C3188.69 1890.33 3181.96 1883.6 3181.96 1875.3C3181.96 1867 3188.69 1860.27 3196.99 1860.27ZM3214.01 1875.3C3214.01 1865.89 3206.39 1858.27 3196.99 1858.27C3187.59 1858.27 3179.96 1865.89 3179.96 1875.3C3179.96 1884.7 3187.59 1892.32 3196.99 1892.32C3206.39 1892.32 3214.01 1884.7 3214.01 1875.3Z" fill="#3F3F46"/>
<path d="M3229.04 1528.69C3229.04 1535.33 3234.42 1540.72 3241.06 1540.72C3247.7 1540.72 3253.07 1535.33 3253.07 1528.69C3253.07 1522.05 3247.7 1516.67 3241.06 1516.67C3234.42 1516.67 3229.04 1522.05 3229.04 1528.69Z" fill="#3F3F46"/>
<path fill-rule="evenodd" clip-rule="evenodd" d="M3241.06 1517.68C3247.14 1517.68 3252.07 1522.61 3252.07 1528.69C3252.07 1534.78 3247.14 1539.71 3241.06 1539.71C3234.98 1539.71 3230.04 1534.78 3230.04 1528.69C3230.04 1522.61 3234.98 1517.68 3241.06 1517.68ZM3254.08 1528.69C3254.08 1521.5 3248.25 1515.67 3241.06 1515.67C3233.86 1515.67 3228.04 1521.5 3228.04 1528.69C3228.04 1535.88 3233.86 1541.71 3241.06 1541.71C3248.25 1541.71 3254.08 1535.88 3254.08 1528.69Z" fill="#3F3F46"/>
<path d="M3449.39 1911.36C3449.39 1922.43 3458.35 1931.39 3469.42 1931.39C3480.47 1931.39 3489.44 1922.43 3489.44 1911.36C3489.44 1900.3 3480.47 1891.33 3469.42 1891.33C3458.35 1891.33 3449.39 1900.3 3449.39 1911.36Z" fill="#3F3F46"/>
<path fill-rule="evenodd" clip-rule="evenodd" d="M3469.42 1892.32C3479.92 1892.32 3488.45 1900.85 3488.45 1911.36C3488.45 1921.87 3479.92 1930.39 3469.42 1930.39C3458.91 1930.39 3450.38 1921.87 3450.38 1911.36C3450.38 1900.85 3458.91 1892.32 3469.42 1892.32ZM3490.44 1911.36C3490.44 1899.75 3481.03 1890.33 3469.42 1890.33C3457.8 1890.33 3448.38 1899.75 3448.38 1911.36C3448.38 1922.98 3457.8 1932.4 3469.42 1932.4C3481.03 1932.4 3490.44 1922.98 3490.44 1911.36Z" fill="#3F3F46"/>
<path d="M3533.52 1723.04C3533.52 1731.88 3540.69 1739.06 3549.54 1739.06C3558.38 1739.06 3565.57 1731.88 3565.57 1723.04C3565.57 1714.18 3558.38 1707.01 3549.54 1707.01C3540.69 1707.01 3533.52 1714.18 3533.52 1723.04Z" fill="#3F3F46"/>
<path fill-rule="evenodd" clip-rule="evenodd" d="M3549.53 1708.01C3557.83 1708.01 3564.56 1714.73 3564.56 1723.04C3564.56 1731.33 3557.83 1738.06 3549.53 1738.06C3541.24 1738.06 3534.51 1731.33 3534.51 1723.04C3534.51 1714.73 3541.24 1708.01 3549.53 1708.01ZM3566.56 1723.04C3566.56 1713.63 3558.93 1706 3549.53 1706C3540.14 1706 3532.51 1713.63 3532.51 1723.04C3532.51 1732.43 3540.14 1740.06 3549.53 1740.06C3558.93 1740.06 3566.56 1732.43 3566.56 1723.04Z" fill="#3F3F46"/>
<path d="M3793.91 1715.02C3793.91 1726.08 3802.88 1735.05 3813.95 1735.05C3825.01 1735.05 3833.98 1726.08 3833.98 1715.02C3833.98 1703.96 3825.01 1694.98 3813.95 1694.98C3802.88 1694.98 3793.91 1703.96 3793.91 1715.02Z" fill="#3F3F46"/>
<path fill-rule="evenodd" clip-rule="evenodd" d="M3813.95 1695.98C3824.46 1695.98 3832.98 1704.51 3832.98 1715.02C3832.98 1725.53 3824.46 1734.05 3813.95 1734.05C3803.44 1734.05 3794.92 1725.53 3794.92 1715.02C3794.92 1704.51 3803.44 1695.98 3813.95 1695.98ZM3834.99 1715.02C3834.99 1703.4 3825.57 1693.98 3813.95 1693.98C3802.33 1693.98 3792.91 1703.4 3792.91 1715.02C3792.91 1726.64 3802.33 1736.06 3813.95 1736.06C3825.57 1736.06 3834.99 1726.64 3834.99 1715.02Z" fill="#3F3F46"/>
</mask>
<g mask="url(#mask1_3254_22687)">
<path d="M0 0H3840V2160H0V0Z" fill="url(#paint1_linear_3254_22687)"/>
</g>
</g>
</g>
<defs>
<linearGradient id="paint0_linear_3254_22687" x1="0" y1="0" x2="3840" y2="2160" gradientUnits="userSpaceOnUse">
<stop stop-color="#27272A"/>
<stop offset="1"/>
</linearGradient>
<linearGradient id="paint1_linear_3254_22687" x1="0" y1="0" x2="3840" y2="2160" gradientUnits="userSpaceOnUse">
<stop offset="0.510417"/>
<stop offset="0.932292" stop-color="#A855F7" stop-opacity="0"/>
</linearGradient>
<clipPath id="clip0_3254_22687">
<rect width="3840" height="2160" fill="white"/>
</clipPath>
</defs>
</svg>
